<svg width="76" height="76" viewBox="0 0 76 76" fill="none" xmlns="http://www.w3.org/2000/svg">
<g clip-path="url(#clip0_43_13841)">
<path d="M54.5337 49.0257L58.0298 47.0072L68.7919 65.6471L65.2958 67.6656L54.5337 49.0257Z" fill="#375E6F" style="fill:#375E6F;fill:color(display-p3 0.2157 0.3686 0.4353);fill-opacity:1;"/>
<path d="M15.2349 46.3342H20.3653V56.9195H15.2349V46.3342Z" fill="#FE0050" style="fill:#FE0050;fill:color(display-p3 0.9961 0.0000 0.3137);fill-opacity:1;"/>
<path d="M20.3653 37.4835H25.4958V56.9194H20.3653V37.4835Z" fill="#00C3FF" style="fill:#00C3FF;fill:color(display-p3 0.0000 0.7647 1.0000);fill-opacity:1;"/>
<path d="M13.989 32.6298C13.8742 32.713 13.7439 32.7724 13.6058 32.8045C13.4676 32.8367 13.3245 32.8409 13.1847 32.817C13.0449 32.793 12.9114 32.7414 12.7918 32.6652C12.6722 32.5889 12.5691 32.4896 12.4884 32.373C12.4078 32.2563 12.3512 32.1248 12.3221 31.986C12.293 31.8472 12.2918 31.704 12.3188 31.5648C12.3457 31.4255 12.4002 31.2931 12.4791 31.1752C12.5579 31.0573 12.6594 30.9564 12.7778 30.8783L20.3913 25.6355C20.5844 25.5015 20.8165 25.4352 21.0512 25.4469C21.286 25.4587 21.5103 25.5478 21.6891 25.7003L27.6803 30.8048L36.903 22.6202C37.0073 22.5262 37.1292 22.4538 37.2617 22.4071C37.3942 22.3604 37.5345 22.3404 37.6748 22.3483C37.815 22.3562 37.9522 22.3917 38.0786 22.4529C38.205 22.5142 38.3181 22.5998 38.4112 22.7049C38.5043 22.81 38.5757 22.9326 38.6212 23.0654C38.6667 23.1983 38.6854 23.3389 38.6763 23.479C38.6672 23.6191 38.6304 23.7561 38.5681 23.8819C38.5058 24.0078 38.4191 24.12 38.3132 24.2122L28.4374 32.9807C28.2459 33.1659 27.9924 33.2732 27.7262 33.282C27.46 33.2908 27.2 33.2003 26.9968 33.0282L20.9276 27.8498L13.989 32.6298Z" fill="#214C5F" style="fill:#214C5F;fill:color(display-p3 0.1294 0.2980 0.3725);fill-opacity:1;"/>
<path fill-rule="evenodd" clip-rule="evenodd" d="M27.5246 30.1253C27.9383 30.0923 28.3524 30.1828 28.7147 30.3853C29.0769 30.5877 29.371 30.893 29.5597 31.2626C29.7484 31.6322 29.8233 32.0494 29.7749 32.4616C29.7265 32.8737 29.557 33.2623 29.2877 33.5781C29.0185 33.8938 28.6617 34.1227 28.2624 34.2357C27.8631 34.3487 27.4393 34.3407 27.0445 34.2129C26.6497 34.085 26.3017 33.8429 26.0445 33.5172C25.7873 33.1916 25.6325 32.797 25.5995 32.3833C25.5554 31.8286 25.7335 31.2791 26.0945 30.8556C26.4555 30.4322 26.9699 30.1695 27.5246 30.1253Z" fill="#FFC300" style="fill:#FFC300;fill:color(display-p3 1.0000 0.7647 0.0000);fill-opacity:1;"/>
<path fill-rule="evenodd" clip-rule="evenodd" d="M20.9104 24.4843C21.3241 24.4514 21.7382 24.5419 22.1004 24.7444C22.4626 24.9469 22.7567 25.2522 22.9454 25.6218C23.1341 25.9914 23.209 26.4086 23.1605 26.8208C23.1121 27.2329 22.9425 27.6214 22.6733 27.9372C22.4041 28.253 22.0473 28.4818 21.648 28.5948C21.2487 28.7078 20.8248 28.6998 20.4301 28.5719C20.0353 28.444 19.6873 28.2019 19.4301 27.8763C19.1729 27.5506 19.0181 27.156 18.9852 26.7424C18.941 26.1876 19.1191 25.6381 19.4801 25.2147C19.8411 24.7912 20.3557 24.5285 20.9104 24.4843Z" fill="#FE0050" style="fill:#FE0050;fill:color(display-p3 0.9961 0.0000 0.3137);fill-opacity:1;"/>
<path fill-rule="evenodd" clip-rule="evenodd" d="M13.2148 29.6622C13.628 29.6289 14.0418 29.7189 14.4039 29.9207C14.766 30.1226 15.0601 30.4273 15.249 30.7963C15.438 31.1652 15.5132 31.582 15.4653 31.9937C15.4174 32.4055 15.2485 32.7938 14.9799 33.1096C14.7113 33.4254 14.3551 33.6544 13.9564 33.7678C13.5576 33.8811 13.1342 33.8737 12.7397 33.7464C12.3452 33.6191 11.9972 33.3777 11.7399 33.0527C11.4826 32.7276 11.3274 32.3336 11.294 31.9204C11.2499 31.3664 11.4274 30.8175 11.7875 30.3941C12.1476 29.9708 12.6609 29.7076 13.2148 29.6622Z" fill="#25C73B" style="fill:#25C73B;fill:color(display-p3 0.1451 0.7804 0.2314);fill-opacity:1;"/>
<path fill-rule="evenodd" clip-rule="evenodd" d="M37.4395 21.3265C37.8529 21.293 38.2669 21.383 38.6292 21.585C38.9914 21.787 39.2856 22.0919 39.4745 22.4612C39.6633 22.8304 39.7384 23.2474 39.6902 23.6594C39.642 24.0713 39.4727 24.4597 39.2036 24.7754C38.9346 25.091 38.578 25.3198 38.1789 25.4327C37.7798 25.5456 37.3562 25.5375 36.9617 25.4096C36.5671 25.2816 36.2194 25.0395 35.9626 24.7138C35.7057 24.3882 35.5513 23.9937 35.5187 23.5802C35.4749 23.0267 35.6526 22.4784 36.0127 22.0558C36.3729 21.6332 36.886 21.3709 37.4395 21.3265Z" fill="#00C3FF" style="fill:#00C3FF;fill:color(display-p3 0.0000 0.7647 1.0000);fill-opacity:1;"/>
<path d="M15.2349 46.3342H16.6884V56.6037H15.2349V46.3342Z" fill="#E50048" style="fill:#E50048;fill:color(display-p3 0.8980 0.0000 0.2824);fill-opacity:1;"/>
<path d="M20.3653 37.4835H21.8188V56.6037H20.3653V37.4835Z" fill="#00B0E6" style="fill:#00B0E6;fill:color(display-p3 0.0000 0.6902 0.9020);fill-opacity:1;"/>
<path d="M25.4958 41.8655H26.9493V56.6037H25.4958V41.8655Z" fill="#21B335" style="fill:#21B335;fill:color(display-p3 0.1294 0.7020 0.2078);fill-opacity:1;"/>
<path d="M12.7561 57.988C12.4727 57.988 12.2008 57.8754 12.0004 57.675C11.8 57.4746 11.6874 57.2027 11.6874 56.9193C11.6874 56.6358 11.8 56.364 12.0004 56.1636C12.2008 55.9631 12.4727 55.8505 12.7561 55.8505H38.2354C38.5189 55.8505 38.7907 55.9631 38.9911 56.1636C39.1916 56.364 39.3042 56.6358 39.3042 56.9193C39.3042 57.2027 39.1916 57.4746 38.9911 57.675C38.7907 57.8754 38.5189 57.988 38.2354 57.988H12.7561Z" fill="#214C5F" style="fill:#214C5F;fill:color(display-p3 0.1294 0.2980 0.3725);fill-opacity:1;"/>
<g clip-path="url(#clip1_43_13841)">
<path d="M66.8625 70.5366C66.8608 70.5366 66.864 70.5366 66.8625 70.5366L62.5182 70.1808L58.371 70.1624C56.8357 70.06 55.5039 69.1929 54.2759 68.2526L52.8155 67.1347C51.658 66.2493 50.0415 66.1038 48.5842 66.1038L42.6546 66.0462L42.1638 64.6727V46.839L48.709 46.7482C49.6571 46.7482 50.5945 46.5448 51.4585 46.1517L52.1589 45.8321C53.3898 45.2648 54.7293 44.9712 56.0843 44.9697L67.3087 44.9825L68.0132 45.7225L68.7885 45.7217C69.5041 45.7217 70.151 46.0122 70.6205 46.4802C71.09 46.9497 71.379 47.5981 71.379 48.3137C71.379 48.4789 71.3636 48.6404 71.334 48.797C70.5614 49.9845 69.9426 50.6466 68.7886 50.9056H70.6007C72.032 50.9056 73.1911 52.0662 73.1911 53.4976C73.1911 53.6628 73.1757 53.8243 73.1476 53.9809C73.0541 54.5028 72.4831 54.8622 72.1302 55.2233C71.6684 55.6912 71.35 56.0896 70.6007 56.0896H72.0045C73.4357 56.0896 74.5965 57.2503 74.5965 58.6816C74.5965 58.8469 74.5811 59.0084 74.5515 59.1651C74.453 59.6872 73.987 60.0867 73.6271 60.4479C73.1576 60.9158 72.7203 61.2737 72.0045 61.2737H73.4098C74.841 61.2737 76.0001 62.4435 76.0001 63.8854C76.0001 64.0582 75.9835 64.2271 75.9518 64.3904C75.8508 64.9095 75.4693 65.1799 75.1135 65.5393C74.6457 66.0133 73.9973 66.3054 73.2815 66.3054L71.2642 66.4988C71.2642 66.7897 71.2347 67.0739 71.1786 67.3482C70.4749 69.2412 68.8976 70.5366 66.8625 70.5366Z" fill="#FFDCD0" style="fill:#FFDCD0;fill:color(display-p3 1.0000 0.8627 0.8157);fill-opacity:1;"/>
<path d="M67.0513 70.7144C67.0498 70.7144 67.0498 70.7144 67.0482 70.7144H62.5418L58.3946 70.696C56.8593 70.5936 55.3837 70.0401 54.1556 69.0996L52.6953 67.9818C51.5378 67.0964 50.1217 66.6164 48.6643 66.6164H42.1638V64.6727H49.6568C51.1142 64.6727 52.5301 65.1529 53.6878 66.0382L55.1481 67.1559C56.376 68.0964 57.8517 68.65 59.387 68.7524L63.5342 68.7706H68.0406H68.0437C69.2839 68.7706 70.4002 68.2339 71.1709 67.3776C70.7671 69.2847 69.0758 70.7144 67.0513 70.7144Z" fill="#FFC7B6" style="fill:#FFC7B6;fill:color(display-p3 1.0000 0.7804 0.7137);fill-opacity:1;"/>
<path d="M72.4584 55.331C71.9966 55.7988 71.3498 56.0895 70.6004 56.0895H67.2394C66.6582 56.0895 66.1858 55.617 66.1858 55.0359V55.0344C66.1858 54.4532 66.6582 53.9808 67.2394 53.9808L73.1475 53.9809C73.0556 54.5024 72.8117 54.9701 72.4584 55.331Z" fill="#FFC7B6" style="fill:#FFC7B6;fill:color(display-p3 1.0000 0.7804 0.7137);fill-opacity:1;"/>
<path d="M73.4096 66.4985H64.7361C64.1535 66.4985 63.6825 66.026 63.6825 65.4449V65.4434C63.6825 64.8622 64.1535 64.3898 64.7361 64.3898H75.9495C75.8501 64.9081 75.5979 65.373 75.2415 65.7324C74.7736 66.2065 74.1252 66.4985 73.4096 66.4985Z" fill="#FFC7B6" style="fill:#FFC7B6;fill:color(display-p3 1.0000 0.7804 0.7137);fill-opacity:1;"/>
<path d="M68.7885 50.9056H67.2394C66.6582 50.9056 66.1858 50.4331 66.1858 49.852V49.8505C66.1858 49.2695 66.6582 48.7969 67.2394 48.7969H71.333C71.1082 49.9971 70.053 50.9056 68.7885 50.9056Z" fill="#FFC7B6" style="fill:#FFC7B6;fill:color(display-p3 1.0000 0.7804 0.7137);fill-opacity:1;"/>
<path d="M73.8377 60.5149C73.3682 60.9827 72.7198 61.2734 72.0042 61.2734H67.2394C66.6582 61.2734 66.1858 60.8024 66.1858 60.2198V60.2183C66.1858 59.6371 66.6582 59.1647 67.2394 59.1647H74.5504C74.4525 59.6861 74.1971 60.154 73.8377 60.5149Z" fill="#FFC7B6" style="fill:#FFC7B6;fill:color(display-p3 1.0000 0.7804 0.7137);fill-opacity:1;"/>
<path d="M26.3515 68.6477L26.25 44.9681H43.8033L45.3762 44.2953C46.182 44.2953 46.8353 44.9483 46.8353 45.7539L46.1057 47.5107V64.6726L45.582 66.9641C45.582 67.7697 44.9288 68.4227 44.1229 68.4227L26.3515 68.6477Z" fill="#4EB8F9" style="fill:#4EB8F9;fill:color(display-p3 0.3059 0.7216 0.9765);fill-opacity:1;"/>
<path d="M30.3639 64.6727V69.1685H44.6458C45.4517 69.1685 46.1062 68.5155 46.1062 67.7096V64.6727H30.3639Z" fill="#3BA4F2" style="fill:#3BA4F2;fill:color(display-p3 0.2314 0.6431 0.9490);fill-opacity:1;"/>
<path d="M39.6621 54.2394C40.9419 54.2394 41.9795 53.2022 41.9795 51.9228C41.9795 50.6435 40.9419 49.6063 39.6621 49.6063C38.3822 49.6063 37.3447 50.6435 37.3447 51.9228C37.3447 53.2022 38.3822 54.2394 39.6621 54.2394Z" fill="#F5F8F9" style="fill:#F5F8F9;fill:color(display-p3 0.9608 0.9725 0.9765);fill-opacity:1;"/>
<path d="M31.1226 69.6581L31.1009 58.1119C31.0994 56.7559 29.6645 54.6322 29.0973 53.4017V45.7539L10.7641 45.342L10.677 50.6945C10.6614 51.6568 10.3372 52.5887 9.75219 53.3529L8.16985 55.4203C7.23083 56.648 6.67835 58.122 6.57474 59.6573L6.55723 63.8024V68.3078C6.55633 69.7622 7.30832 71.0542 8.42932 71.8114C9.39787 71.6669 10.0001 71.9249 10.7709 72.5215V74.6662C10.7709 75.3807 11.0626 76.0295 11.5349 76.4975C12.0073 76.967 12.6605 77.2572 13.3807 77.2572C13.4708 77.2572 13.5599 77.2526 13.6476 77.2439C14.8197 76.7108 15.6091 75.7052 15.6091 74.3642L15.9906 73.2622C15.9906 73.9781 16.2808 74.6254 16.7503 75.0935C17.2183 75.563 17.8656 75.8532 18.5816 75.8532C18.6662 75.8532 18.7497 75.8491 18.8323 75.8411C20.003 75.1669 20.9095 74.444 20.9095 73.0983L21.171 71.8581C21.171 72.6076 21.4612 73.2549 21.9293 73.7157C22.3973 74.1764 23.0446 74.4491 23.7605 74.4491C23.8447 74.4491 23.9278 74.4451 24.0099 74.4372C25.294 73.8291 26.0762 73.0054 26.0762 71.6591L26.3515 70.0472C26.3515 71.476 27.4741 72.6352 28.9045 72.6352C29.6204 72.6352 29.895 71.9573 30.3644 71.4892C30.8339 71.0199 31.1226 70.374 31.1226 69.6581Z" fill="#D5877A" style="fill:#D5877A;fill:color(display-p3 0.8353 0.5294 0.4784);fill-opacity:1;"/>
<path d="M8.42932 71.8117C9.09848 72.2607 9.90479 72.5218 10.7709 72.5218V66.1546C10.7709 65.8308 10.6397 65.5378 10.4283 65.3264C10.2155 65.115 9.92245 64.9838 9.6002 64.9838C8.95286 64.9838 8.42947 65.5072 8.42947 66.1547L8.42932 71.8117Z" fill="#C86F5C" style="fill:#C86F5C;fill:color(display-p3 0.7843 0.4353 0.3608);fill-opacity:1;"/>
<path d="M26.3515 71.8583V68.6477C26.3515 68.324 26.2203 68.031 26.0089 67.8196C25.7961 67.6082 25.503 67.477 25.1808 67.477C24.5335 67.477 24.0101 68.0004 24.0101 68.6477V74.4375C25.3236 74.3121 26.3515 73.204 26.3515 71.8583Z" fill="#C86F5C" style="fill:#C86F5C;fill:color(display-p3 0.7843 0.4353 0.3608);fill-opacity:1;"/>
<path d="M15.9907 74.6664V68.6477C15.9907 68.324 15.8595 68.031 15.6481 67.8196C15.4368 67.6082 15.1436 67.477 14.82 67.477C14.1741 67.477 13.6491 68.0004 13.6491 68.6477V77.2442C14.9658 77.1101 15.9907 76.0064 15.9907 74.6664Z" fill="#C86F5C" style="fill:#C86F5C;fill:color(display-p3 0.7843 0.4353 0.3608);fill-opacity:1;"/>
<path d="M21.171 71.8583C21.171 71.9049 21.1725 71.9516 21.174 71.9982V68.6477C21.174 68.324 21.0428 68.031 20.8314 67.8196C20.6186 67.6082 20.3269 67.477 20.0033 67.477C19.3574 67.477 18.8326 68.0004 18.8326 68.6477V75.8416C20.1447 75.7147 21.1712 74.6081 21.1712 73.2623L21.171 71.8583Z" fill="#C86F5C" style="fill:#C86F5C;fill:color(display-p3 0.7843 0.4353 0.3608);fill-opacity:1;"/>
<path d="M31.5304 70.0473L31.5201 58.1119C31.5186 56.7559 31.2256 55.4175 30.6584 54.1869L30.3679 53.5479C29.9569 52.6441 29.7448 51.6625 29.7458 50.6696L29.7521 45.7539L27.1198 45.9178V50.7944C27.1198 51.7051 27.3149 52.6052 27.6918 53.4342L28.0339 54.1868C28.6011 55.4173 28.8941 56.7558 28.8956 58.1118L28.9043 72.6352L28.9055 72.6364C29.6354 72.646 30.2949 72.3542 30.772 71.8785C31.2416 71.4093 31.5304 70.7633 31.5304 70.0473Z" fill="#C86F5C" style="fill:#C86F5C;fill:color(display-p3 0.7843 0.4353 0.3608);fill-opacity:1;"/>
<path d="M8.0943 31.867L31.715 26.9739L31.8522 45.0246C31.8522 45.8303 31.199 46.4835 30.3933 46.4835L27.1201 47.3745H9.55314C8.74742 47.3745 8.0943 46.7214 8.0943 45.9157V31.867Z" fill="#FF8076" style="fill:#FF8076;fill:color(display-p3 1.0000 0.5020 0.4627);fill-opacity:1;"/>
<path d="M32.3039 26.8517V45.916C32.3039 46.7219 31.6509 47.3749 30.845 47.3749H27.12V27.9252L27.1843 27.9131L32.3039 26.8517Z" fill="#FF6666" style="fill:#FF6666;fill:color(display-p3 1.0000 0.4000 0.4000);fill-opacity:1;"/>
<path d="M22.485 40.9336C22.485 39.6542 23.5226 38.6171 24.8024 38.6171C26.0824 38.6171 27.1198 39.6542 27.1198 40.9336C27.1198 42.213 26.0823 43.2501 24.8024 43.2501C23.5226 43.2501 22.485 42.213 22.485 40.9336Z" fill="#F5F8F9" style="fill:#F5F8F9;fill:color(display-p3 0.9608 0.9725 0.9765);fill-opacity:1;"/>
<path d="M9.13751 7.8385L13.4818 8.19431L17.629 8.21256C19.1643 8.31499 20.4961 9.18201 21.7241 10.1224L23.1845 11.2402C24.342 12.1257 25.9585 12.2711 27.4158 12.2711L33.3454 12.3287L33.8362 13.7022V30.8641H26.5283C25.5802 30.8641 24.6428 31.0675 23.7788 31.4605L23.0785 31.7801C21.8475 32.3475 20.508 32.6411 19.153 32.6426L7.21169 32.6532C6.49607 32.6532 5.84918 32.3627 5.37967 31.8947C4.91016 31.4252 4.62116 30.7768 4.62116 30.0612C4.62116 29.896 4.63659 29.7345 4.66613 29.5779C5.43875 28.3904 6.05759 27.7284 7.21154 27.4694H5.39956C3.96833 27.4694 2.80918 26.3087 2.80918 24.8773C2.80918 24.7121 2.82462 24.5506 2.85267 24.394C2.94619 23.8721 3.51723 23.5128 3.87006 23.1516C4.33185 22.6837 4.65025 22.2853 5.39956 22.2853H3.99579C2.56455 22.2853 1.40377 21.1247 1.40377 19.6933C1.40377 19.5281 1.41921 19.3666 1.44875 19.2099C1.54731 18.6878 2.01326 18.2882 2.37322 17.9271C2.84273 17.4592 3.28002 17.1013 3.99579 17.1013H2.59053C1.15915 17.1016 0 15.9319 0 14.4898C0 14.3171 0.016625 14.1481 0.0483906 13.9849C0.149328 13.4658 0.530812 13.1953 0.886617 12.8359C1.35449 12.362 2.00287 12.0699 2.71863 12.0699L4.7359 11.8764C4.7359 11.5855 4.76544 11.3014 4.82155 11.0271C5.52514 9.13377 7.10244 7.8385 9.13751 7.8385Z" fill="#FFDCD0" style="fill:#FFDCD0;fill:color(display-p3 1.0000 0.8627 0.8157);fill-opacity:1;"/>
<path d="M8.9487 7.66052H8.95182H13.4582L17.6054 7.67878C19.1407 7.7812 20.6163 8.33487 21.8444 9.27523L23.3047 10.3931C24.4622 11.2785 25.8783 11.7586 27.3357 11.7586H33.8362V13.7022H26.3432C24.8858 13.7022 23.4699 13.222 22.3122 12.3367L20.8519 11.219C19.624 10.2785 18.1483 9.72499 16.613 9.62257L12.4658 9.60416H7.95937C7.95788 9.60416 7.95788 9.60416 7.95625 9.60416C6.71605 9.60416 5.5998 10.1409 4.82912 10.9972C5.23287 9.09027 6.92416 7.66052 8.9487 7.66052Z" fill="#FFC7B6" style="fill:#FFC7B6;fill:color(display-p3 1.0000 0.7804 0.7137);fill-opacity:1;"/>
<path d="M3.54157 23.044C4.00336 22.5761 4.65025 22.2855 5.39956 22.2855H8.76063C9.34177 22.2855 9.81424 22.7579 9.81424 23.3391V23.3406C9.81424 23.9217 9.34177 24.3942 8.76063 24.3942L2.85252 24.394C2.94441 23.8727 3.18829 23.405 3.54157 23.044Z" fill="#FFC7B6" style="fill:#FFC7B6;fill:color(display-p3 1.0000 0.7804 0.7137);fill-opacity:1;"/>
<path d="M2.59038 11.8765H11.2639C11.8465 11.8765 12.3175 12.3489 12.3175 12.9301V12.9316C12.3175 13.5127 11.8465 13.9852 11.2639 13.9852H0.0504684C0.149922 13.4668 0.402117 13.0019 0.758515 12.6426C1.22639 12.1686 1.87477 11.8765 2.59038 11.8765Z" fill="#FFC7B6" style="fill:#FFC7B6;fill:color(display-p3 1.0000 0.7804 0.7137);fill-opacity:1;"/>
<path d="M7.21154 27.4695H8.76063C9.34176 27.4695 9.81424 27.942 9.81424 28.5232V28.5246C9.81424 29.1056 9.34176 29.5782 8.76063 29.5782H4.66702C4.89176 28.3778 5.947 27.4695 7.21154 27.4695Z" fill="#FFC7B6" style="fill:#FFC7B6;fill:color(display-p3 1.0000 0.7804 0.7137);fill-opacity:1;"/>
<path d="M2.16229 17.8601C2.6318 17.3923 3.28017 17.1016 3.99579 17.1016H8.76063C9.34177 17.1016 9.81424 17.5726 9.81424 18.1552V18.1567C9.81424 18.7379 9.34177 19.2103 8.76063 19.2103H1.44964C1.54746 18.689 1.80292 18.221 2.16229 17.8601Z" fill="#FFC7B6" style="fill:#FFC7B6;fill:color(display-p3 1.0000 0.7804 0.7137);fill-opacity:1;"/>
<path d="M48.0519 9.98326L48.4432 33.4068H31.3536C30.5477 33.4068 29.8944 32.7539 29.8944 31.9483V13.7022L30.6319 11.4106C30.6319 10.6051 31.2851 9.95209 32.091 9.95209L48.0519 9.98326Z" fill="#FCC16D" style="fill:#FCC16D;fill:color(display-p3 0.9882 0.7569 0.4275);fill-opacity:1;"/>
<path d="M31.3542 9.20648C30.5483 9.20648 29.8938 9.85946 29.8938 10.6653V13.7022H46.5191V9.20648H31.3542Z" fill="#FBB44D" style="fill:#FBB44D;fill:color(display-p3 0.9843 0.7059 0.3020);fill-opacity:1;"/>
<path d="M36.3379 28.7688C37.6178 28.7688 38.6554 27.7316 38.6554 26.4523C38.6554 25.1729 37.6178 24.1357 36.3379 24.1357C35.0581 24.1357 34.0205 25.1729 34.0205 26.4523C34.0205 27.7316 35.0581 28.7688 36.3379 28.7688Z" fill="#F5F8F9" style="fill:#F5F8F9;fill:color(display-p3 0.9608 0.9725 0.9765);fill-opacity:1;"/>
<path d="M69.3812 11.8803L69.0254 16.2246L69.0071 20.3718C68.9047 21.9071 68.0377 23.2389 67.0973 24.4669L65.9794 25.9272C65.094 27.0848 64.9485 28.7012 64.9485 30.1586L64.8909 36.0882L63.5175 36.579H46.3554V29.2711C46.3554 28.323 46.152 27.3856 45.759 26.5216L45.4394 25.8213C44.8721 24.5903 44.5785 23.2508 44.577 21.8958L44.5663 9.95448C44.5663 9.23887 44.8569 8.59198 45.3248 8.12247C45.7943 7.65296 46.4427 7.36395 47.1583 7.36395C47.3235 7.36395 47.485 7.37939 47.6416 7.40893C48.8291 8.18155 49.4911 8.80038 49.7502 9.95434V8.14221C49.7502 6.71098 50.9108 5.55183 52.3422 5.55183C52.5074 5.55183 52.6689 5.56727 52.8255 5.59532C53.3474 5.68884 53.7068 6.25988 54.0679 6.61271C54.5358 7.0745 54.9342 7.3929 54.9342 8.14221V6.73844C54.9342 5.3072 56.0948 4.14642 57.5262 4.14642C57.6914 4.14642 57.8529 4.16186 58.0097 4.1914C58.5317 4.28996 58.9313 4.75591 59.2925 5.11587C59.7603 5.58538 60.1182 6.02267 60.1182 6.73844V5.33318C60.1182 3.90195 61.2881 2.7428 62.73 2.7428C62.9028 2.7428 63.0717 2.75942 63.235 2.79119C63.7541 2.89213 64.0245 3.27361 64.3839 3.62941C64.8578 4.09729 65.15 4.74566 65.15 5.46143L65.3432 7.4787C65.6342 7.4787 65.9183 7.50823 66.1926 7.56434C68.0859 8.26779 69.3812 9.84509 69.3812 11.8803Z" fill="#C86F5C" style="fill:#C86F5C;fill:color(display-p3 0.7843 0.4353 0.3608);fill-opacity:1;"/>
<path d="M69.5592 11.6915V11.6946V16.201L69.5409 20.3482C69.4385 21.8835 68.8848 23.3591 67.9444 24.5872L66.8266 26.0475C65.9411 27.205 65.4611 28.6211 65.4611 30.0785V36.579H63.5174V29.086C63.5174 27.6287 63.9976 26.2127 64.8829 25.055L66.0007 23.5947C66.9412 22.3668 67.4947 20.8911 67.5971 19.3558L67.6154 15.2087V10.702C67.6154 10.7005 67.6154 10.7005 67.6154 10.6989C67.6154 9.45872 67.0786 8.34246 66.2223 7.57178C68.1294 7.97553 69.5592 9.66682 69.5592 11.6915Z" fill="#AF564A" style="fill:#AF564A;fill:color(display-p3 0.6863 0.3373 0.2902);fill-opacity:1;"/>
<path d="M54.1757 6.2842C54.6436 6.74599 54.9342 7.39288 54.9342 8.14219V11.5033C54.9342 12.0844 54.4617 12.5569 53.8806 12.5569H53.8791C53.298 12.5569 52.8255 12.0844 52.8255 11.5033L52.8256 5.59515C53.347 5.68704 53.8147 5.93107 54.1757 6.2842Z" fill="#AF564A" style="fill:#AF564A;fill:color(display-p3 0.6863 0.3373 0.2902);fill-opacity:1;"/>
<path d="M65.3432 5.33315V14.0067C65.3432 14.5893 64.8708 15.0603 64.2896 15.0603H64.2881C63.707 15.0603 63.2345 14.5893 63.2345 14.0067V2.79309C63.7529 2.89254 64.2178 3.14474 64.5771 3.50114C65.0511 3.96901 65.3432 4.61739 65.3432 5.33315Z" fill="#AF564A" style="fill:#AF564A;fill:color(display-p3 0.6863 0.3373 0.2902);fill-opacity:1;"/>
<path d="M49.7502 9.95433V11.5034C49.7502 12.0846 49.2777 12.557 48.6966 12.557H48.6951C48.1141 12.557 47.6415 12.0846 47.6415 11.5034V7.40967C48.8419 7.63455 49.7502 8.68964 49.7502 9.95433Z" fill="#AF564A" style="fill:#AF564A;fill:color(display-p3 0.6863 0.3373 0.2902);fill-opacity:1;"/>
<path d="M59.3596 4.90491C59.8274 5.37442 60.1181 6.02279 60.1181 6.73841V11.5033C60.1181 12.0844 59.6471 12.5569 59.0645 12.5569H59.063C58.4818 12.5569 58.0094 12.0844 58.0094 11.5033V4.19226C58.5307 4.29023 58.9987 4.54554 59.3596 4.90491Z" fill="#AF564A" style="fill:#AF564A;fill:color(display-p3 0.6863 0.3373 0.2902);fill-opacity:1;"/>
<path d="M67.6446 34.5245L67.3087 44.9823L63.5173 45.726L56.847 45.7324C55.4922 45.7339 54.1525 46.0275 52.9215 46.5948L52.2212 46.9144C51.3573 47.3075 50.4198 47.5108 49.4717 47.5108H46.1062V46.4266C46.1062 45.6208 45.4517 44.9678 44.6458 44.9678H43.8033V34.0832C43.8033 33.2773 44.4563 32.6243 45.2622 32.6243H63.5175L66.1859 33.0656C66.9916 33.0656 67.6446 33.7186 67.6446 34.5245Z" fill="#67E88E" style="fill:#67E88E;fill:color(display-p3 0.4039 0.9098 0.5569);fill-opacity:1;"/>
<path d="M68.0132 34.0832V45.7217L63.5174 45.7263V32.6243H66.5543C67.3602 32.6243 68.0132 33.2773 68.0132 34.0832Z" fill="#5BD397" style="fill:#5BD397;fill:color(display-p3 0.3569 0.8275 0.5922);fill-opacity:1;"/>
<path d="M50.7606 41.3821C52.0404 41.3821 53.078 40.345 53.078 39.0656C53.078 37.7862 52.0404 36.7491 50.7606 36.7491C49.4807 36.7491 48.4432 37.7862 48.4432 39.0656C48.4432 40.345 49.4807 41.3821 50.7606 41.3821Z" fill="#F5F8F9" style="fill:#F5F8F9;fill:color(display-p3 0.9608 0.9725 0.9765);fill-opacity:1;"/>
</g>
</g>
<defs>
<clipPath id="clip0_43_13841">
<rect width="76" height="76" fill="white" style="fill:white;fill-opacity:1;"/>
</clipPath>
<clipPath id="clip1_43_13841">
<rect width="76" height="76" fill="white" style="fill:white;fill-opacity:1;" transform="translate(0 2)"/>
</clipPath>
</defs>
</svg>
