<svg width="86" height="86" viewBox="0 0 86 86" fill="none" xmlns="http://www.w3.org/2000/svg">
<path d="M71.825 79.05C71.825 79.7109 71.2882 80.2476 70.6237 80.2476C69.9592 80.2476 69.4224 79.7109 69.4224 79.05C69.4224 78.3855 69.9592 77.8487 70.6237 77.8487C71.2882 77.8487 71.825 78.3855 71.825 79.05Z" fill="#FFD67E" style="fill:#FFD67E;fill:color(display-p3 1.0000 0.8392 0.4941);fill-opacity:1;"/>
<path d="M75.0726 79.05C75.0726 79.7109 74.5359 80.2476 73.8714 80.2476C73.2068 80.2476 72.6701 79.7109 72.6701 79.05C72.6701 78.3855 73.2068 77.8487 73.8714 77.8487C74.5359 77.8487 75.0726 78.3855 75.0726 79.05Z" fill="#FFD67E" style="fill:#FFD67E;fill:color(display-p3 1.0000 0.8392 0.4941);fill-opacity:1;"/>
<path d="M65.3613 79.05C65.3613 79.7109 64.8246 80.2476 64.1601 80.2476C63.4955 80.2476 62.9588 79.7109 62.9588 79.05C62.9588 78.3855 63.4955 77.8487 64.1601 77.8487C64.8246 77.8487 65.3613 78.3855 65.3613 79.05Z" fill="#FFD67E" style="fill:#FFD67E;fill:color(display-p3 1.0000 0.8392 0.4941);fill-opacity:1;"/>
<path d="M68.609 79.05C68.609 79.7109 68.0723 80.2476 67.4077 80.2476C66.7432 80.2476 66.2065 79.7109 66.2065 79.05C66.2065 78.3855 66.7432 77.8487 67.4077 77.8487C68.0723 77.8487 68.609 78.3855 68.609 79.05Z" fill="#FFD67E" style="fill:#FFD67E;fill:color(display-p3 1.0000 0.8392 0.4941);fill-opacity:1;"/>
<path d="M58.8977 79.05C58.8977 79.7109 58.361 80.2476 57.6964 80.2476C57.0319 80.2476 56.4952 79.7109 56.4952 79.05C56.4952 78.3855 57.0319 77.8487 57.6964 77.8487C58.361 77.8487 58.8977 78.3855 58.8977 79.05Z" fill="#FFD67E" style="fill:#FFD67E;fill:color(display-p3 1.0000 0.8392 0.4941);fill-opacity:1;"/>
<path d="M62.1454 79.05C62.1454 79.7109 61.6086 80.2476 60.9441 80.2476C60.2796 80.2476 59.7428 79.7109 59.7428 79.05C59.7428 78.3855 60.2796 77.8487 60.9441 77.8487C61.6086 77.8487 62.1454 78.3855 62.1454 79.05Z" fill="#FFD67E" style="fill:#FFD67E;fill:color(display-p3 1.0000 0.8392 0.4941);fill-opacity:1;"/>
<path d="M11.8305 81.4834C13.0804 81.4834 14.0937 80.4701 14.0937 79.2202C14.0937 77.9703 13.0804 76.9571 11.8305 76.9571C10.5806 76.9571 9.56734 77.9703 9.56734 79.2202C9.56734 80.4701 10.5806 81.4834 11.8305 81.4834Z" fill="#E4686A" style="fill:#E4686A;fill:color(display-p3 0.8941 0.4078 0.4157);fill-opacity:1;"/>
<path d="M77.9128 30.2073V75.1339H8.09973V30.2073C8.09973 27.3443 10.4109 25.0334 13.2564 25.0334H72.7389C75.6021 25.0334 77.9128 27.3443 77.9128 30.2073Z" fill="#474646" style="fill:#474646;fill:color(display-p3 0.2784 0.2745 0.2745);fill-opacity:1;"/>
<path d="M13.9523 67.563V32.6079C13.9523 31.6574 14.7229 30.8868 15.6734 30.8868H70.3351C71.2856 30.8868 72.0561 31.6574 72.0561 32.6079V67.563C72.0561 68.5135 71.2856 69.284 70.3351 69.284H15.6734C14.7229 69.284 13.9523 68.5135 13.9523 67.563Z" fill="white" style="fill:white;fill-opacity:1;"/>
<path d="M84.1989 77.4281L82.9846 80.0813C81.8828 82.5098 79.4769 84.0836 76.8011 84.0836H9.17635C6.52296 84.0836 4.09465 82.5098 2.99289 80.0813L1.80111 77.4281C1.14908 75.989 2.20583 74.3251 3.80233 74.3251H82.1977C83.7942 74.3251 84.8509 75.989 84.1989 77.4281Z" fill="#606076" style="fill:#606076;fill:color(display-p3 0.3765 0.3765 0.4627);fill-opacity:1;"/>
<path d="M54.9643 74.3251L53.2001 75.9783C52.7508 76.3993 52.158 76.6337 51.5422 76.6337H34.4578C33.842 76.6337 33.2492 76.3993 32.7999 75.9783L31.0357 74.3251H54.9643Z" fill="white" style="fill:white;fill-opacity:1;"/>
<path d="M51.9088 57.4988C51.9088 58.0826 51.4349 58.5566 50.8511 58.5566H34.998C34.4142 58.5566 33.9333 58.0826 33.9333 57.4988C33.9333 56.9081 34.4142 56.4342 34.998 56.4342H50.8511C51.4349 56.4342 51.9088 56.9081 51.9088 57.4988Z" fill="#2C2C39" style="fill:#2C2C39;fill:color(display-p3 0.1725 0.1725 0.2235);fill-opacity:1;"/>
<path d="M51.9088 60.8301C51.9088 61.414 51.4349 61.888 50.8511 61.888H34.998C34.4142 61.888 33.9333 61.414 33.9333 60.8301C33.9333 60.2394 34.4142 59.7655 34.998 59.7655H50.8511C51.4349 59.7655 51.9088 60.2394 51.9088 60.8301Z" fill="#2C2C39" style="fill:#2C2C39;fill:color(display-p3 0.1725 0.1725 0.2235);fill-opacity:1;"/>
<path d="M46.3488 63.359C46.3488 64.3008 45.9669 65.1492 45.3476 65.7686C44.7366 66.3795 43.8882 66.7613 42.9465 66.7613H42.8956C41.0121 66.7613 39.4933 65.2426 39.4933 63.359H46.3488Z" fill="#2C2C39" style="fill:#2C2C39;fill:color(display-p3 0.1725 0.1725 0.2235);fill-opacity:1;"/>
<path d="M49.6455 54.8784V61.7815C49.6455 62.7019 48.9037 63.4437 47.9833 63.4437H37.8588C36.9384 63.4437 36.1966 62.7019 36.1966 61.7815V54.8784H49.6455Z" fill="#606076" style="fill:#606076;fill:color(display-p3 0.3765 0.3765 0.4627);fill-opacity:1;"/>
<path d="M61.968 30.2744C61.968 34.6444 60.4888 38.6737 58.0022 41.8808C56.05 44.3985 54.588 47.2604 53.4871 50.25L52.6999 52.3875C52.0987 54.0202 50.5434 55.1049 48.8036 55.1049H37.1965C35.4567 55.1049 33.9014 54.0202 33.3001 52.3875L32.5451 50.3372C31.4302 47.3098 29.9528 44.4101 27.9799 41.8574C25.2964 38.3855 23.7921 33.9535 24.0634 29.1703C24.602 19.6744 32.3181 11.9234 41.8117 11.3459C52.8231 10.6761 61.968 19.4144 61.968 30.2744Z" fill="#FFB749" style="fill:#FFB749;fill:color(display-p3 1.0000 0.7176 0.2863);fill-opacity:1;"/>
<path d="M24.8922 18.9249C24.9867 19.2486 24.9462 19.5858 24.7708 19.8825C24.528 20.2871 24.0964 20.5165 23.6514 20.5165C23.422 20.5165 23.2062 20.4625 23.0039 20.3411L18.4719 17.7784C18.1752 17.6165 17.9593 17.3332 17.8649 16.996C17.784 16.6723 17.8245 16.3351 17.9998 16.0384C18.3505 15.4315 19.1463 15.2291 19.7668 15.5798L24.2988 18.1426C24.5954 18.3044 24.8113 18.5877 24.8922 18.9249Z" fill="#FFB749" style="fill:#FFB749;fill:color(display-p3 1.0000 0.7176 0.2863);fill-opacity:1;"/>
<path d="M32.9446 10.6027C33.1199 10.886 33.1604 11.2367 33.0795 11.5604C32.9851 11.8976 32.7692 12.1674 32.4725 12.3427C32.2702 12.4506 32.0544 12.5046 31.8251 12.5046C31.38 12.5046 30.9484 12.2752 30.7191 11.8841L28.1024 7.44656C27.927 7.14978 27.8731 6.79907 27.9675 6.47537C28.0484 6.13817 28.2642 5.86839 28.5744 5.69312C29.1814 5.35592 29.9773 5.55819 30.3279 6.16517L32.9446 10.6027Z" fill="#FFB749" style="fill:#FFB749;fill:color(display-p3 1.0000 0.7176 0.2863);fill-opacity:1;"/>
<path d="M44.2881 3.18426V8.3098C44.2881 9.01113 43.7081 9.5776 43.0067 9.5776C42.2918 9.5776 41.7118 9.01113 41.7118 8.3098V3.18426C41.7118 2.48294 42.2918 1.91638 43.0067 1.91638C43.7081 1.91638 44.2881 2.48294 44.2881 3.18426Z" fill="#FFB749" style="fill:#FFB749;fill:color(display-p3 1.0000 0.7176 0.2863);fill-opacity:1;"/>
<path d="M67.528 17.7784L62.996 20.3411C62.7937 20.4625 62.5779 20.5165 62.3486 20.5165C61.9035 20.5165 61.4719 20.2871 61.2291 19.869C61.0673 19.5858 61.0133 19.2486 61.1077 18.9249C61.1886 18.5877 61.4045 18.3044 61.7147 18.1426L66.2466 15.5798C66.8536 15.2291 67.6495 15.4315 68.0002 16.0384C68.1754 16.3351 68.2159 16.6723 68.135 17.0095C68.0406 17.3332 67.8248 17.6165 67.528 17.7784Z" fill="#FFB749" style="fill:#FFB749;fill:color(display-p3 1.0000 0.7176 0.2863);fill-opacity:1;"/>
<path d="M58.0324 6.47537C58.1269 6.79907 58.0729 7.14978 57.911 7.43306L55.2943 11.8706C55.0516 12.2752 54.6199 12.5046 54.1749 12.5046C53.9455 12.5046 53.7297 12.4506 53.5274 12.3427C53.2307 12.1674 53.0148 11.8976 52.9204 11.5604C52.8395 11.2367 52.88 10.886 53.0553 10.5892L55.672 6.15167C56.0227 5.55819 56.8185 5.34242 57.4255 5.69312C57.7357 5.86839 57.9515 6.15167 58.0324 6.47537Z" fill="#FFB749" style="fill:#FFB749;fill:color(display-p3 1.0000 0.7176 0.2863);fill-opacity:1;"/>
<path d="M46.3399 55.1049H44.7314V39.6281H41.2679V55.1049H39.6594V39.6281H37.1431C34.8539 39.6281 33.004 37.7782 33.004 35.5033C33.004 33.2284 34.8539 31.3784 37.1288 31.3784C39.418 31.3784 41.2679 33.2284 41.2679 35.5033V38.0196H44.7314V35.5033C44.7314 33.2284 46.5813 31.3784 48.8562 31.3784C51.1461 31.3784 52.9961 33.2284 52.9961 35.5033C52.9961 37.7782 51.1461 39.6281 48.8712 39.6281H46.3399V55.1049ZM46.3399 38.0196H48.8562C50.2583 38.0196 51.3875 36.8904 51.3875 35.5033C51.3875 34.1162 50.2583 32.987 48.8712 32.987C47.4691 32.987 46.3399 34.1162 46.3399 35.5033V38.0196ZM37.1431 32.987C35.7417 32.987 34.6125 34.1162 34.6125 35.5033C34.6125 36.8904 35.7417 38.0196 37.1288 38.0196H39.6594V35.5033C39.6594 34.1162 38.5302 32.987 37.1431 32.987Z" fill="#2C2C39" style="fill:#2C2C39;fill:color(display-p3 0.1725 0.1725 0.2235);fill-opacity:1;"/>
<path d="M67.5311 50.7663C67.5311 55.1607 63.9672 58.7246 59.5769 58.7246C55.1825 58.7246 51.6186 55.1607 51.6186 50.7663C51.6186 46.3761 55.1825 42.8121 59.5769 42.8121C63.9672 42.8121 67.5311 46.3761 67.5311 50.7663Z" fill="#E4686A" style="fill:#E4686A;fill:color(display-p3 0.8941 0.4078 0.4157);fill-opacity:1;"/>
<path d="M58.3366 53.9762C58.1527 53.9762 57.9686 53.906 57.8285 53.7656L55.3268 51.2639C55.046 50.9834 55.046 50.5283 55.3268 50.2477C55.6071 49.967 56.0626 49.967 56.343 50.2477L58.3366 52.2412L62.8068 47.7711C63.0872 47.4904 63.5426 47.4904 63.823 47.7711C64.1037 48.0517 64.1037 48.5068 63.823 48.7873L58.8447 53.7656C58.7045 53.906 58.5204 53.9762 58.3366 53.9762Z" fill="white" style="fill:white;fill-opacity:1;"/>
</svg>
