<svg width="100" height="100" viewBox="0 0 100 100" fill="none" xmlns="http://www.w3.org/2000/svg">
<g clip-path="url(#clip0_43_13717)">
<path fill-rule="evenodd" clip-rule="evenodd" d="M63.2182 37.3771C57.7463 30.9607 47.9769 30.8123 44.5248 34.951C40.6988 33.9998 37.5947 37.8162 36.6402 41.3072C35.3623 45.9816 37.1018 50.9982 37.7156 56.082C37.86 57.2777 37.9424 58.477 37.9082 59.6766C37.7668 64.6572 34.9254 69.6404 31.0801 74.3701C36.9277 76.8076 66.2984 76.7875 72.918 75.4918C69.276 69.407 68.6312 62.5299 68.1912 56.082C67.6844 48.6549 67.449 41.7971 63.2182 37.3771Z" fill="#2C3033" style="fill:#2C3033;fill:color(display-p3 0.1725 0.1882 0.2000);fill-opacity:1;"/>
<path fill-rule="evenodd" clip-rule="evenodd" d="M51.9053 97.8598H83.6375V90.1363C83.6375 84.7977 81.4102 83.0303 76.4377 81.0877L63.6867 76.1064L59.8016 73.0236H44.0092L40.124 76.1064L27.3729 81.0877C22.4006 83.0301 20.173 84.7975 20.173 90.1363V97.8598H51.9053Z" fill="#4F5D99" style="fill:#4F5D99;fill:color(display-p3 0.3098 0.3647 0.6000);fill-opacity:1;"/>
<path fill-rule="evenodd" clip-rule="evenodd" d="M63.3471 97.8598H65.3531L67.1439 77.4572L65.2039 76.6994L63.3465 97.8598H63.3471Z" fill="#45518A" style="fill:#45518A;fill:color(display-p3 0.2706 0.3176 0.5412);fill-opacity:1;"/>
<path fill-rule="evenodd" clip-rule="evenodd" d="M51.9053 97.8598H63.3465L65.2039 76.6994L63.6865 76.1066L59.8014 73.024L52.6988 81.1367H51.1115L44.009 73.024L40.1238 76.1066L38.6064 76.6994L40.4639 97.8598H51.9053Z" fill="#E7EBF5" style="fill:#E7EBF5;fill:color(display-p3 0.9059 0.9216 0.9608);fill-opacity:1;"/>
<path fill-rule="evenodd" clip-rule="evenodd" d="M52.1359 63.0805H58.5004L59.1748 78.0473L52.6988 81.1367H51.1115L44.6355 78.0473L45.3102 63.0805H51.6744H51.9053H52.1359Z" fill="#EDBB8A" style="fill:#EDBB8A;fill:color(display-p3 0.9294 0.7333 0.5412);fill-opacity:1;"/>
<path fill-rule="evenodd" clip-rule="evenodd" d="M52.1359 63.0805H58.5004L59.1748 78.0473L52.6988 81.1367H51.1115L47.575 79.4496L48.3127 63.0805H51.6744H51.9053H52.1359Z" fill="#F9C795" style="fill:#F9C795;fill:color(display-p3 0.9765 0.7804 0.5843);fill-opacity:1;"/>
<path fill-rule="evenodd" clip-rule="evenodd" d="M52.6988 81.1367L57.6551 87.834L63.6865 76.1066L59.8014 73.024L52.6988 81.1367Z" fill="white" style="fill:white;fill-opacity:1;"/>
<path fill-rule="evenodd" clip-rule="evenodd" d="M51.1115 81.1367L46.1555 87.834L40.1238 76.1066L44.009 73.024L51.1115 81.1367Z" fill="white" style="fill:white;fill-opacity:1;"/>
<path fill-rule="evenodd" clip-rule="evenodd" d="M40.6326 57.7158C40.4799 55.5982 40.1676 52.6186 40.1676 52.6186C39.7766 52.2604 39.091 51.6197 38.3293 51.0674C37.0965 50.1732 35.4529 50.2822 34.7471 51.4201C34.3658 52.0348 34.6312 52.8443 34.942 53.6314C34.9666 53.6941 35.6969 54.9221 36.2922 56.1805C36.9418 57.5539 36.7623 58.1713 37.9152 58.9686C38.8635 59.6242 40.1643 59.1756 40.6326 57.7158Z" fill="#F9C795" style="fill:#F9C795;fill:color(display-p3 0.9765 0.7804 0.5843);fill-opacity:1;"/>
<path fill-rule="evenodd" clip-rule="evenodd" d="M38.9381 52.4734C38.6231 51.8574 37.8682 51.6137 37.2523 51.9287C36.6365 52.2438 36.3926 52.9986 36.7076 53.6145C37.0367 54.2537 37.2879 54.7979 37.516 55.3508C37.7439 55.9031 37.9449 56.4568 38.1756 57.1193C38.4022 57.774 39.1166 58.1211 39.7713 57.8945C40.426 57.668 40.7731 56.9535 40.5465 56.2988C40.2992 55.5885 40.0836 54.9945 39.8385 54.4004C39.5936 53.8068 39.3147 53.2047 38.9383 52.4732L38.9381 52.4734Z" fill="#EDB47C" style="fill:#EDB47C;fill:color(display-p3 0.9294 0.7059 0.4863);fill-opacity:1;"/>
<path fill-rule="evenodd" clip-rule="evenodd" d="M64.7078 56.082C65.6875 51.5844 63.0777 48.4508 60.759 48.1027C52.377 46.8449 50.2627 42.2406 44.642 41.2881C45.1262 44.1531 42.4059 47.8379 38.3295 51.0672C38.9465 57.9721 41.9213 68.8103 49.2299 71.6836C50.3316 72.1166 50.7369 71.7258 51.9053 71.7131C52.9443 71.7131 53.5098 72.1047 54.5809 71.6836C60.2777 69.4441 63.3414 62.3652 64.7078 56.0818V56.082Z" fill="#F2CB9F" style="fill:#F2CB9F;fill:color(display-p3 0.9490 0.7961 0.6235);fill-opacity:1;"/>
<path fill-rule="evenodd" clip-rule="evenodd" d="M64.7078 56.082C65.6875 51.5844 63.0777 48.4508 60.759 48.1027C52.377 46.8449 50.2627 42.2406 44.642 41.2881C45.1262 44.1531 44.5299 47.9479 40.4533 51.1771C40.968 56.9357 42.792 66.4986 47.7289 70.9484C48.2078 71.2309 48.7072 71.4781 49.2297 71.6836C50.3314 72.1166 50.7367 71.7258 51.9051 71.7131C52.9441 71.7131 53.5096 72.1047 54.5807 71.6836C60.2775 69.4441 63.3412 62.3652 64.7076 56.0818L64.7078 56.082Z" fill="#FDD7AD" style="fill:#FDD7AD;fill:color(display-p3 0.9922 0.8431 0.6784);fill-opacity:1;"/>
<path fill-rule="evenodd" clip-rule="evenodd" d="M51.1115 81.1367L46.1555 87.834L40.1238 76.1066L46.0373 89.066L51.46 81.7383H52.3506L57.7731 89.066L63.6865 76.1066L57.6551 87.834L52.6988 81.1365L51.1115 81.1367Z" fill="#D6DBE8" style="fill:#D6DBE8;fill:color(display-p3 0.8392 0.8588 0.9098);fill-opacity:1;"/>
<path fill-rule="evenodd" clip-rule="evenodd" d="M40.4633 97.8598H38.4572L36.6664 77.4572L38.6064 76.6994L40.4639 97.8598H40.4633Z" fill="#45518A" style="fill:#45518A;fill:color(display-p3 0.2706 0.3176 0.5412);fill-opacity:1;"/>
<path fill-rule="evenodd" clip-rule="evenodd" d="M85.227 29.2402L89.0063 37.2844L97.8246 38.3928L91.342 44.473L93.0127 53.2023L85.227 48.9158L77.4412 53.2023L79.1119 44.473L72.6293 38.3928L81.4477 37.2844L85.227 29.2402Z" fill="#F9AC00" style="fill:#F9AC00;fill:color(display-p3 0.9765 0.6745 0.0000);fill-opacity:1;"/>
<path fill-rule="evenodd" clip-rule="evenodd" d="M86.1203 31.1416L89.0063 37.2844L97.8246 38.3928L91.342 44.473L92.7346 51.7494L86.4072 48.266L85.227 48.9158L79.6441 51.9895L81.2092 43.8123L75.0998 38.0822L83.3465 37.0457L86.1203 31.1416Z" fill="#FDC72E" style="fill:#FDC72E;fill:color(display-p3 0.9922 0.7804 0.1804);fill-opacity:1;"/>
<path fill-rule="evenodd" clip-rule="evenodd" d="M20.1768 55.2322C20.1768 56.3938 19.2264 57.3443 18.0648 57.3443H10.2879C9.12617 57.3443 8.17578 56.3939 8.17578 55.2322V54.1115C8.17578 48.2988 2.17539 46.666 2.17539 38.8545C2.17539 31.6873 8.17578 28.1037 14.1764 28.1037C20.177 28.1037 26.1773 31.6873 26.1773 38.8545C26.1773 46.666 20.1768 48.2988 20.1768 54.1115V55.2322Z" fill="#F9AC00" style="fill:#F9AC00;fill:color(display-p3 0.9765 0.6745 0.0000);fill-opacity:1;"/>
<path fill-rule="evenodd" clip-rule="evenodd" d="M20.1768 55.2322C20.1768 56.3937 19.2264 57.3441 18.0648 57.3441H13.0807C11.9191 57.3441 10.9688 56.3937 10.9688 55.2322V54.1115C10.9688 48.2988 4.96836 46.666 4.96836 38.8545C4.96836 32.2443 10.0723 28.6824 15.5729 28.1687C21.0734 28.6826 26.1773 32.2445 26.1773 38.8545C26.1773 46.666 20.177 48.2988 20.177 54.1115L20.1768 55.2322Z" fill="#FDC72E" style="fill:#FDC72E;fill:color(display-p3 0.9922 0.7804 0.1804);fill-opacity:1;"/>
<path fill-rule="evenodd" clip-rule="evenodd" d="M10.9668 55.5357H17.3859V58.5184C17.3859 59.4072 16.6584 60.1348 15.7695 60.1348H12.5832C11.6941 60.1348 10.9668 59.4074 10.9668 58.5184V55.5357Z" fill="#45518A" style="fill:#45518A;fill:color(display-p3 0.2706 0.3176 0.5412);fill-opacity:1;"/>
<path fill-rule="evenodd" clip-rule="evenodd" d="M12.9035 55.5357H17.3859V58.5184C17.3859 59.4072 16.6584 60.1348 15.7695 60.1348H14.5199C13.6311 60.1348 12.9035 59.4074 12.9035 58.5184V55.5357Z" fill="#4F5D99" style="fill:#4F5D99;fill:color(display-p3 0.3098 0.3647 0.6000);fill-opacity:1;"/>
<path fill-rule="evenodd" clip-rule="evenodd" d="M20.1768 55.2322C20.1768 56.3938 19.2264 57.3443 18.0648 57.3443H10.2879C9.12617 57.3443 8.17578 56.3939 8.17578 55.2322V54.1115H20.1768V55.2322Z" fill="#6A75AD" style="fill:#6A75AD;fill:color(display-p3 0.4157 0.4588 0.6784);fill-opacity:1;"/>
<path fill-rule="evenodd" clip-rule="evenodd" d="M20.1768 55.2322C20.1768 56.393 19.2279 57.3428 18.0676 57.3441H13.0807C11.9191 57.3441 10.9688 56.3938 10.9688 55.2322V54.1115H20.177L20.1768 55.2322Z" fill="#7986BF" style="fill:#7986BF;fill:color(display-p3 0.4745 0.5255 0.7490);fill-opacity:1;"/>
<path fill-rule="evenodd" clip-rule="evenodd" d="M13.2037 54.1113V47.8272C13.2037 47.7467 13.2004 47.6662 13.2012 47.5857C12.7379 47.3959 12.2984 47.0936 11.8994 46.6951C10.9475 45.7443 10.1855 44.1963 9.89512 42.3311C9.81309 41.8002 10.1768 41.3031 10.7076 41.2211C11.2385 41.1391 11.7355 41.5027 11.8176 42.0336C12.0422 43.4766 12.5941 44.6367 13.2725 45.3143C13.2955 45.3373 13.3184 45.3596 13.3414 45.3813C13.617 43.169 14.2563 41.766 14.9164 41.0441C15.4121 40.5022 15.9715 40.2537 16.5031 40.2629C17.1424 40.2738 17.6713 40.6172 17.9898 41.2463C18.3611 41.9795 18.4078 43.2201 17.7979 44.7559C17.2701 46.0846 16.575 46.94 15.8102 47.3977C15.5945 47.5268 15.375 47.6248 15.1531 47.6936L15.149 47.8274V54.1115H13.2035L13.2037 54.1113ZM16.325 42.3854C15.9178 42.8506 15.5256 43.7738 15.3143 45.2693C15.5512 44.9748 15.7793 44.569 15.99 44.0385C16.2844 43.2977 16.3717 42.7408 16.325 42.3854Z" fill="#FF6600" style="fill:#FF6600;fill:color(display-p3 1.0000 0.4000 0.0000);fill-opacity:1;"/>
<path d="M56.1433 23.6088C61.838 21.2694 64.558 14.7564 62.2186 9.06163C59.8791 3.3669 53.3661 0.646918 47.6714 2.98637C41.9766 5.32583 39.2567 11.8388 41.5961 17.5336C43.9356 23.2283 50.4486 25.9483 56.1433 23.6088Z" fill="#3FC977" style="fill:#3FC977;fill:color(display-p3 0.2471 0.7882 0.4667);fill-opacity:1;"/>
<path fill-rule="evenodd" clip-rule="evenodd" d="M53.1137 2.20566C58.7016 2.8082 63.0523 7.53945 63.0523 13.2875C63.0523 19.0355 58.7016 23.7668 53.1137 24.3693C47.5258 23.7668 43.175 19.0355 43.175 13.2875C43.175 7.53945 47.5258 2.8082 53.1137 2.20566Z" fill="#4FE88E" style="fill:#4FE88E;fill:color(display-p3 0.3098 0.9098 0.5569);fill-opacity:1;"/>
<path fill-rule="evenodd" clip-rule="evenodd" d="M46.3736 13.218C46.1061 12.7523 46.2666 12.158 46.7322 11.8904C47.1979 11.6229 47.7922 11.7834 48.0598 12.249L49.7719 15.2145L55.9035 9.08281C56.2848 8.70156 56.9031 8.70156 57.2844 9.08281C57.6656 9.46406 57.6656 10.0824 57.2844 10.4637L50.2561 17.492L50.2533 17.4893C50.1941 17.5484 50.1262 17.601 50.0502 17.6447C49.5846 17.9123 48.9902 17.7518 48.7227 17.2861L46.374 13.218H46.3736Z" fill="white" style="fill:white;fill-opacity:1;"/>
<path fill-rule="evenodd" clip-rule="evenodd" d="M33.7359 24.1916C33.1988 24.1895 32.7648 23.7522 32.767 23.215C32.7691 22.6779 33.2062 22.244 33.7436 22.2461L37.7652 22.268C38.3785 22.2703 38.8318 22.8307 38.7162 23.4272L37.9387 27.3729C37.8355 27.9016 37.323 28.2467 36.7943 28.1434C36.2656 28.0402 35.9205 27.5277 36.0238 26.999L36.282 25.6936L29.5799 31.116C29.1607 31.4551 28.5459 31.3902 28.2066 30.9711C27.8674 30.552 27.9324 29.9371 28.3516 29.5979L35.0252 24.1986L33.7361 24.1916H33.7359ZM70.2896 32.4065C69.7525 32.4086 69.3152 31.9748 69.3131 31.4375C69.3109 30.9004 69.7447 30.4631 70.282 30.4609L71.5711 30.4539L63.5664 23.9779C63.1473 23.6389 63.0822 23.0238 63.4215 22.6047C63.7607 22.1856 64.3756 22.1205 64.7947 22.4598L72.8279 28.959L72.5697 27.6535C72.4666 27.1248 72.8115 26.6123 73.3402 26.5092C73.8689 26.4061 74.3814 26.751 74.4846 27.2797L75.2621 31.2254C75.3777 31.8215 74.9244 32.3822 74.3111 32.3846L70.2894 32.4065H70.2896Z" fill="#2C3033" style="fill:#2C3033;fill:color(display-p3 0.1725 0.1882 0.2000);fill-opacity:1;"/>
<path fill-rule="evenodd" clip-rule="evenodd" d="M51.1594 95.0561C51.1594 94.5168 51.5967 94.0795 52.1359 94.0795C52.6752 94.0795 53.1125 94.5168 53.1125 95.0561V95.5174C53.1125 96.0566 52.6752 96.494 52.1359 96.494C51.5967 96.494 51.1594 96.0566 51.1594 95.5174V95.0561Z" fill="#2C3033" style="fill:#2C3033;fill:color(display-p3 0.1725 0.1882 0.2000);fill-opacity:1;"/>
<path fill-rule="evenodd" clip-rule="evenodd" d="M51.1594 87.9488C51.1594 87.4096 51.5967 86.9723 52.1359 86.9723C52.6752 86.9723 53.1125 87.4096 53.1125 87.9488V88.4102C53.1125 88.9494 52.6752 89.3867 52.1359 89.3867C51.5967 89.3867 51.1594 88.9494 51.1594 88.4102V87.9488Z" fill="#2C3033" style="fill:#2C3033;fill:color(display-p3 0.1725 0.1882 0.2000);fill-opacity:1;"/>
</g>
<defs>
<clipPath id="clip0_43_13717">
<rect width="100" height="100" fill="white" style="fill:white;fill-opacity:1;"/>
</clipPath>
</defs>
</svg>
