<svg width="76" height="76" viewBox="0 0 76 76" fill="none" xmlns="http://www.w3.org/2000/svg">
<g clip-path="url(#clip0_43_13812)">
<path d="M54.5337 49.0257L58.0298 47.0072L68.7919 65.6471L65.2958 67.6656L54.5337 49.0257Z" fill="#375E6F" style="fill:#375E6F;fill:color(display-p3 0.2157 0.3686 0.4353);fill-opacity:1;"/>
<path fill-rule="evenodd" clip-rule="evenodd" d="M61.5302 62.6988L66.4182 59.8785C66.5939 59.7772 66.8026 59.7494 66.9987 59.8012C67.1948 59.8531 67.3625 59.9804 67.4651 60.1553L74.3216 72.0303C74.4212 72.2069 74.4476 72.4155 74.395 72.6113C74.3424 72.807 74.2151 72.9744 74.0405 73.0773L69.1523 75.8976C69.0652 75.9482 68.9689 75.981 68.869 75.9943C68.7691 76.0075 68.6676 76.0009 68.5703 75.9748C68.473 75.9487 68.3819 75.9035 68.3021 75.842C68.2223 75.7805 68.1554 75.7039 68.1054 75.6164L61.2489 63.7463C61.1493 63.5698 61.123 63.3612 61.1756 63.1654C61.2282 62.9696 61.3555 62.8023 61.5302 62.6994V62.6988Z" fill="#214C5F" style="fill:#214C5F;fill:color(display-p3 0.1294 0.2980 0.3725);fill-opacity:1;"/>
<path fill-rule="evenodd" clip-rule="evenodd" d="M45.2173 5.91345H4.2082C3.51147 5.91611 2.84404 6.19407 2.35138 6.68676C1.85873 7.17944 1.58081 7.84689 1.57819 8.54362V67.0765C1.58092 67.7732 1.8589 68.4405 2.35154 68.9331C2.84418 69.4257 3.51155 69.7036 4.2082 69.7062H45.2173C45.9136 69.7035 46.5805 69.4253 47.0725 68.9325C47.5644 68.4398 47.8414 67.7724 47.843 67.0761V8.54362C47.8414 7.84732 47.5644 7.17993 47.0725 6.68715C46.5805 6.19437 45.9136 5.91623 45.2173 5.91345Z" fill="#00C3FF" style="fill:#00C3FF;fill:color(display-p3 0.0000 0.7647 1.0000);fill-opacity:1;"/>
<path fill-rule="evenodd" clip-rule="evenodd" d="M47.843 65.7529H10.8181C9.60151 65.7507 8.43536 65.2664 7.5751 64.4061C6.71484 63.5459 6.23059 62.3797 6.22844 61.1631V5.91345H45.2173C45.9136 5.91623 46.5805 6.19437 47.0725 6.68715C47.5644 7.17993 47.8414 7.84732 47.843 8.54362V65.7529Z" fill="#00B0E6" style="fill:#00B0E6;fill:color(display-p3 0.0000 0.6902 0.9020);fill-opacity:1;"/>
<path fill-rule="evenodd" clip-rule="evenodd" d="M10.8181 0H41.497L54.453 12.9602V61.1631C54.4514 61.8594 54.1743 62.5268 53.6824 63.0195C53.1905 63.5123 52.5235 63.7905 51.8273 63.7932H10.8181C10.1212 63.7913 9.4533 63.5136 8.96049 63.0208C8.46768 62.5279 8.18999 61.86 8.18811 61.1631V2.63016C8.18999 1.93321 8.46768 1.26533 8.96049 0.772487C9.4533 0.279647 10.1212 0.00191963 10.8181 0Z" fill="#EAF6FF" style="fill:#EAF6FF;fill:color(display-p3 0.9176 0.9647 1.0000);fill-opacity:1;"/>
<path fill-rule="evenodd" clip-rule="evenodd" d="M41.497 0L54.453 12.9602H41.497V0Z" fill="#D3DDE6" style="fill:#D3DDE6;fill:color(display-p3 0.8275 0.8667 0.9020);fill-opacity:1;"/>
<path d="M15.2349 46.3342H20.3653V56.9195H15.2349V46.3342Z" fill="#FE0050" style="fill:#FE0050;fill:color(display-p3 0.9961 0.0000 0.3137);fill-opacity:1;"/>
<path d="M20.3653 37.4834H25.4958V56.9194H20.3653V37.4834Z" fill="#00C3FF" style="fill:#00C3FF;fill:color(display-p3 0.0000 0.7647 1.0000);fill-opacity:1;"/>
<path d="M25.4958 41.8654H30.6262V56.9194H25.4958V41.8654Z" fill="#25C73B" style="fill:#25C73B;fill:color(display-p3 0.1451 0.7804 0.2314);fill-opacity:1;"/>
<path d="M30.6262 37.4834H35.7567V56.9194H30.6262V37.4834Z" fill="#FFC300" style="fill:#FFC300;fill:color(display-p3 1.0000 0.7647 0.0000);fill-opacity:1;"/>
<path d="M14.1664 11.2256C13.883 11.2256 13.6111 11.113 13.4107 10.9125C13.2103 10.7121 13.0977 10.4403 13.0977 10.1568C13.0977 9.87337 13.2103 9.60153 13.4107 9.4011C13.6111 9.20067 13.883 9.08807 14.1664 9.08807H33.2352C33.5186 9.08807 33.7904 9.20067 33.9909 9.4011C34.1913 9.60153 34.3039 9.87337 34.3039 10.1568C34.3039 10.4403 34.1913 10.7121 33.9909 10.9125C33.7904 11.113 33.5186 11.2256 33.2352 11.2256H14.1664ZM14.1664 17.6581C13.883 17.6581 13.6111 17.5455 13.4107 17.3451C13.2103 17.1447 13.0977 16.8728 13.0977 16.5894C13.0977 16.3059 13.2103 16.0341 13.4107 15.8336C13.6111 15.6332 13.883 15.5206 14.1664 15.5206H33.2352C33.5186 15.5206 33.7904 15.6332 33.9909 15.8336C34.1913 16.0341 34.3039 16.3059 34.3039 16.5894C34.3039 16.8728 34.1913 17.1447 33.9909 17.3451C33.7904 17.5455 33.5186 17.6581 33.2352 17.6581H14.1664Z" fill="#D3DDE6" style="fill:#D3DDE6;fill:color(display-p3 0.8275 0.8667 0.9020);fill-opacity:1;"/>
<path fill-rule="evenodd" clip-rule="evenodd" d="M54.453 29.3725C57.3488 29.3721 60.1797 30.2304 62.5877 31.839C64.9957 33.4475 66.8726 35.7341 67.9811 38.4094C69.0895 41.0847 69.3797 44.0286 68.8149 46.8689C68.2501 49.7091 66.8557 52.3181 64.808 54.3658C62.7604 56.4135 60.1515 57.808 57.3113 58.3729C54.4711 58.9378 51.5271 58.6478 48.8518 57.5395C46.1764 56.4312 43.8898 54.5544 42.2811 52.1464C40.6725 49.7385 39.814 46.9076 39.8143 44.0117C39.8153 40.1296 41.3578 36.4067 44.1029 33.6617C46.848 30.9166 50.5708 29.374 54.453 29.3731V29.3725Z" fill="#214C5F" style="fill:#214C5F;fill:color(display-p3 0.1294 0.2980 0.3725);fill-opacity:1;"/>
<path fill-rule="evenodd" clip-rule="evenodd" d="M54.453 54.9296C56.6125 54.9296 58.7235 54.2892 60.519 53.0895C62.3145 51.8897 63.714 50.1844 64.5404 48.1893C65.3667 46.1942 65.5829 43.9988 65.1616 41.8808C64.7402 39.7628 63.7003 37.8173 62.1733 36.2904C60.6462 34.7634 58.7007 33.7236 56.5827 33.3024C54.4647 32.8812 52.2693 33.0975 50.2742 33.9239C48.2792 34.7504 46.574 36.15 45.3743 37.9456C44.1746 39.7412 43.5344 41.8522 43.5345 44.0117C43.5401 46.9057 44.6923 49.6796 46.7387 51.726C48.7851 53.7724 51.5589 54.9245 54.453 54.9302V54.9296Z" fill="#00C3FF" style="fill:#00C3FF;fill:color(display-p3 0.0000 0.7647 1.0000);fill-opacity:1;"/>
<path d="M13.989 32.6298C13.8742 32.713 13.7439 32.7724 13.6058 32.8045C13.4676 32.8367 13.3245 32.8409 13.1847 32.817C13.0449 32.793 12.9114 32.7414 12.7918 32.6652C12.6722 32.5889 12.5691 32.4896 12.4884 32.373C12.4078 32.2563 12.3512 32.1248 12.3221 31.986C12.293 31.8472 12.2918 31.704 12.3188 31.5648C12.3457 31.4255 12.4002 31.2931 12.4791 31.1752C12.5579 31.0573 12.6594 30.9564 12.7778 30.8783L20.3913 25.6355C20.5844 25.5015 20.8165 25.4352 21.0512 25.4469C21.286 25.4587 21.5103 25.5478 21.6891 25.7003L27.6803 30.8048L36.903 22.6202C37.0073 22.5262 37.1292 22.4538 37.2617 22.4071C37.3942 22.3604 37.5345 22.3404 37.6748 22.3483C37.815 22.3562 37.9522 22.3917 38.0786 22.4529C38.205 22.5142 38.3181 22.5998 38.4112 22.7049C38.5043 22.81 38.5757 22.9326 38.6212 23.0654C38.6667 23.1983 38.6854 23.3389 38.6763 23.479C38.6672 23.6191 38.6304 23.7561 38.5681 23.8819C38.5058 24.0078 38.4191 24.12 38.3132 24.2122L28.4374 32.9807C28.2459 33.1659 27.9924 33.2732 27.7262 33.282C27.46 33.2908 27.2 33.2003 26.9968 33.0282L20.9276 27.8498L13.989 32.6298Z" fill="#214C5F" style="fill:#214C5F;fill:color(display-p3 0.1294 0.2980 0.3725);fill-opacity:1;"/>
<path fill-rule="evenodd" clip-rule="evenodd" d="M27.5246 30.1252C27.9383 30.0923 28.3524 30.1828 28.7147 30.3852C29.0769 30.5877 29.371 30.893 29.5597 31.2626C29.7484 31.6322 29.8233 32.0494 29.7749 32.4616C29.7265 32.8737 29.557 33.2622 29.2877 33.578C29.0185 33.8938 28.6617 34.1227 28.2624 34.2357C27.8631 34.3487 27.4393 34.3407 27.0445 34.2128C26.6497 34.0849 26.3017 33.8429 26.0445 33.5172C25.7873 33.1916 25.6325 32.7969 25.5995 32.3833C25.5554 31.8286 25.7335 31.279 26.0945 30.8556C26.4555 30.4321 26.9699 30.1694 27.5246 30.1252Z" fill="#FFC300" style="fill:#FFC300;fill:color(display-p3 1.0000 0.7647 0.0000);fill-opacity:1;"/>
<path fill-rule="evenodd" clip-rule="evenodd" d="M20.9104 24.4843C21.3241 24.4514 21.7382 24.5419 22.1004 24.7444C22.4626 24.9469 22.7567 25.2522 22.9454 25.6218C23.1341 25.9914 23.209 26.4086 23.1605 26.8208C23.1121 27.2329 22.9425 27.6214 22.6733 27.9372C22.4041 28.253 22.0473 28.4818 21.648 28.5948C21.2487 28.7078 20.8248 28.6998 20.4301 28.5719C20.0353 28.444 19.6873 28.2019 19.4301 27.8763C19.1729 27.5506 19.0181 27.156 18.9852 26.7424C18.941 26.1876 19.1191 25.6381 19.4801 25.2147C19.8411 24.7912 20.3557 24.5285 20.9104 24.4843Z" fill="#FE0050" style="fill:#FE0050;fill:color(display-p3 0.9961 0.0000 0.3137);fill-opacity:1;"/>
<path fill-rule="evenodd" clip-rule="evenodd" d="M13.2148 29.6623C13.628 29.6289 14.0418 29.7189 14.4039 29.9208C14.766 30.1226 15.0601 30.4273 15.249 30.7963C15.438 31.1653 15.5132 31.582 15.4653 31.9938C15.4174 32.4056 15.2485 32.7939 14.9799 33.1096C14.7113 33.4254 14.3551 33.6545 13.9564 33.7678C13.5576 33.8811 13.1342 33.8737 12.7397 33.7464C12.3452 33.6191 11.9972 33.3777 11.7399 33.0527C11.4826 32.7277 11.3274 32.3337 11.294 31.9205C11.2499 31.3664 11.4274 30.8175 11.7875 30.3942C12.1476 29.9708 12.6609 29.7076 13.2148 29.6623Z" fill="#25C73B" style="fill:#25C73B;fill:color(display-p3 0.1451 0.7804 0.2314);fill-opacity:1;"/>
<path fill-rule="evenodd" clip-rule="evenodd" d="M37.4395 21.3265C37.8529 21.293 38.2669 21.383 38.6292 21.585C38.9914 21.787 39.2856 22.0919 39.4745 22.4612C39.6633 22.8304 39.7384 23.2474 39.6902 23.6594C39.642 24.0713 39.4727 24.4597 39.2036 24.7754C38.9346 25.091 38.578 25.3198 38.1789 25.4327C37.7798 25.5456 37.3562 25.5375 36.9617 25.4096C36.5671 25.2816 36.2194 25.0395 35.9626 24.7138C35.7057 24.3882 35.5513 23.9937 35.5187 23.5802C35.4749 23.0267 35.6526 22.4784 36.0127 22.0558C36.3729 21.6332 36.886 21.3709 37.4395 21.3265Z" fill="#00C3FF" style="fill:#00C3FF;fill:color(display-p3 0.0000 0.7647 1.0000);fill-opacity:1;"/>
<path fill-rule="evenodd" clip-rule="evenodd" d="M10.0958 61.1631V2.63016C10.0977 1.93321 10.3754 1.26533 10.8682 0.772487C11.361 0.279647 12.0289 0.00191963 12.7258 0L10.8181 0C10.1212 0.00191963 9.4533 0.279647 8.96049 0.772487C8.46768 1.26533 8.18999 1.93321 8.18811 2.63016V61.1631C8.18999 61.86 8.46768 62.5279 8.96049 63.0208C9.4533 63.5136 10.1212 63.7913 10.8181 63.7932H12.7258C12.0289 63.7913 11.361 63.5136 10.8682 63.0208C10.3754 62.5279 10.0977 61.86 10.0958 61.1631Z" fill="#D3DDE6" style="fill:#D3DDE6;fill:color(display-p3 0.8275 0.8667 0.9020);fill-opacity:1;"/>
<path d="M15.2349 46.3342H16.6884V56.6037H15.2349V46.3342Z" fill="#E50048" style="fill:#E50048;fill:color(display-p3 0.8980 0.0000 0.2824);fill-opacity:1;"/>
<path d="M20.3653 37.4834H21.8188V56.6037H20.3653V37.4834Z" fill="#00B0E6" style="fill:#00B0E6;fill:color(display-p3 0.0000 0.6902 0.9020);fill-opacity:1;"/>
<path d="M25.4958 41.8654H26.9493V56.6037H25.4958V41.8654Z" fill="#21B335" style="fill:#21B335;fill:color(display-p3 0.1294 0.7020 0.2078);fill-opacity:1;"/>
<path d="M30.6262 37.4834H32.0797V56.6037H30.6262V37.4834Z" fill="#E6B000" style="fill:#E6B000;fill:color(display-p3 0.9020 0.6902 0.0000);fill-opacity:1;"/>
<path d="M12.7561 57.988C12.4727 57.988 12.2008 57.8754 12.0004 57.675C11.8 57.4745 11.6874 57.2027 11.6874 56.9192C11.6874 56.6358 11.8 56.364 12.0004 56.1635C12.2008 55.9631 12.4727 55.8505 12.7561 55.8505H38.2354C38.5189 55.8505 38.7907 55.9631 38.9911 56.1635C39.1916 56.364 39.3042 56.6358 39.3042 56.9192C39.3042 57.2027 39.1916 57.4745 38.9911 57.675C38.7907 57.8754 38.5189 57.988 38.2354 57.988H12.7561Z" fill="#214C5F" style="fill:#214C5F;fill:color(display-p3 0.1294 0.2980 0.3725);fill-opacity:1;"/>
<path fill-rule="evenodd" clip-rule="evenodd" d="M42.0032 44.0117C42.0035 40.5082 43.2597 37.1209 45.544 34.4644C47.8282 31.8079 50.989 30.0583 54.453 29.5331C54.8163 29.4812 55.1803 29.438 55.5474 29.412C55.1883 29.386 54.8208 29.3731 54.453 29.3731C52.5303 29.3731 50.6265 29.7518 48.8502 30.4876C47.0738 31.2233 45.4599 32.3018 44.1003 33.6613C42.7408 35.0208 41.6624 36.6348 40.9266 38.4111C40.1908 40.1874 39.8121 42.0913 39.8121 44.0139C39.8121 45.9366 40.1908 47.8404 40.9266 49.6168C41.6624 51.3931 42.7408 53.007 44.1003 54.3666C45.4599 55.7261 47.0738 56.8045 48.8502 57.5403C50.6265 58.2761 52.5303 58.6548 54.453 58.6548C54.8208 58.6548 55.1883 58.6374 55.5474 58.6114C55.1797 58.5855 54.8163 58.5466 54.453 58.4903C50.989 57.9652 47.8281 56.2156 45.5439 53.5591C43.2596 50.9026 42.0034 47.5152 42.0032 44.0117Z" fill="#1E4456" style="fill:#1E4456;fill:color(display-p3 0.1176 0.2667 0.3373);fill-opacity:1;"/>
<path fill-rule="evenodd" clip-rule="evenodd" d="M54.453 33.2095C56.7808 33.5558 58.9345 34.6447 60.5933 36.3141C62.2522 37.9834 63.3275 40.1439 63.6591 42.4739C63.9907 44.8038 63.5609 47.1786 62.4337 49.2445C61.3064 51.3104 59.5421 52.9569 57.4033 53.9389C56.4667 54.3699 55.4732 54.6642 54.453 54.8128C54.1892 54.8518 53.921 54.882 53.6527 54.8993C53.9167 54.921 54.1849 54.929 54.453 54.929C57.3487 54.929 60.1259 53.7787 62.1735 51.7311C64.2211 49.6835 65.3714 46.9063 65.3714 44.0105C65.3714 41.1148 64.2211 38.3376 62.1735 36.29C60.1259 34.2424 57.3487 33.0921 54.453 33.0921C54.1849 33.0921 53.9167 33.1008 53.6527 33.1218C53.921 33.1391 54.1892 33.1694 54.453 33.2083V33.2095Z" fill="#00B0E6" style="fill:#00B0E6;fill:color(display-p3 0.0000 0.6902 0.9020);fill-opacity:1;"/>
<path fill-rule="evenodd" clip-rule="evenodd" d="M65.3109 67.6259L62.2309 62.2922L62.2265 62.2965L61.5302 62.6988C61.3555 62.8017 61.2282 62.969 61.1756 63.1648C61.123 63.3606 61.1493 63.5692 61.2489 63.7457L68.1054 75.6158C68.1554 75.7033 68.2223 75.7799 68.3021 75.8414C68.3819 75.9029 68.473 75.9481 68.5703 75.9742C68.6676 76.0003 68.7691 76.0069 68.869 75.9937C68.9689 75.9804 69.0652 75.9476 69.1523 75.897L74.0405 73.0767C74.2151 72.9738 74.3424 72.8064 74.395 72.6107C74.4476 72.4149 74.4212 72.2063 74.3216 72.0297L73.9453 71.3809L69.7622 73.7991C69.6751 73.8497 69.5788 73.8826 69.4789 73.8958C69.3791 73.9091 69.2776 73.9024 69.1803 73.8763C69.083 73.8502 68.9918 73.8051 68.912 73.7436C68.8322 73.6821 68.7653 73.6054 68.7153 73.518L65.3109 67.6259Z" fill="#1E4456" style="fill:#1E4456;fill:color(display-p3 0.1176 0.2667 0.3373);fill-opacity:1;"/>
</g>
<defs>
<clipPath id="clip0_43_13812">
<rect width="76" height="76" fill="white" style="fill:white;fill-opacity:1;"/>
</clipPath>
</defs>
</svg>
