<svg width="28" height="27" viewBox="0 0 28 27" fill="none" xmlns="http://www.w3.org/2000/svg">
<path d="M26.7119 19.8153L22.8758 16.0473C21.5057 14.7016 19.1766 15.24 18.6286 16.9893C18.2176 18.2005 16.8475 18.8733 15.6144 18.6041C12.8743 17.9313 9.17516 14.4325 8.49013 11.6066C8.07911 10.3954 8.90115 9.0497 10.1342 8.64604C11.9153 8.10777 12.4633 5.8201 11.0932 4.47441L7.25708 0.706486C6.16103 -0.235495 4.51696 -0.235495 3.55792 0.706486L0.954804 3.26329C-1.64831 5.95467 1.22882 13.0868 7.6681 19.4115C14.1074 25.7363 21.3687 28.6968 24.1088 26.0054L26.7119 23.4486C27.671 22.3721 27.671 20.7572 26.7119 19.8153Z" fill="white" style="fill:white;fill-opacity:1;"/>
</svg>
