<svg width="20" height="27" viewBox="0 0 20 27" fill="none" xmlns="http://www.w3.org/2000/svg">
<path d="M10 0C4.48667 0 0 4.57425 0 10.1981C0 18.189 9.06 26.4397 9.44556 26.7862C9.60445 26.9291 9.80222 27 10 27C10.1978 27 10.3956 26.9291 10.5544 26.7874C10.94 26.4398 20 18.189 20 10.1981C20 4.57425 15.5133 0 10 0ZM10 15.75C6.93667 15.75 4.44444 13.2266 4.44444 10.125C4.44444 7.02338 6.93667 4.5 10 4.5C13.0633 4.5 15.5556 7.02338 15.5556 10.125C15.5556 13.2266 13.0633 15.75 10 15.75Z" fill="white" style="fill:white;fill-opacity:1;"/>
</svg>
