<svg width="33" height="23" viewBox="0 0 33 23" fill="none" xmlns="http://www.w3.org/2000/svg">
<path d="M32.015 1.62256L22.2192 11.3553L32.015 21.0879C32.1921 20.7178 32.2995 20.3087 32.2995 19.8717V2.83877C32.2995 2.40178 32.1921 1.99268 32.015 1.62256Z" fill="white" style="fill:white;fill-opacity:1;"/>
<path d="M29.4607 0H2.83884C2.40185 0 1.99274 0.107434 1.62262 0.284514L14.1427 12.7415C15.2497 13.8485 17.0499 13.8485 18.1569 12.7415L30.6769 0.284514C30.3068 0.107434 29.8977 0 29.4607 0Z" fill="white" style="fill:white;fill-opacity:1;"/>
<path d="M0.284513 1.62256C0.107434 1.99268 0 2.40178 0 2.83877V19.8717C0 20.3087 0.107434 20.7179 0.284513 21.0879L10.0803 11.3553L0.284513 1.62256Z" fill="white" style="fill:white;fill-opacity:1;"/>
<path d="M20.8811 12.6934L19.495 14.0795C17.6504 15.9241 14.649 15.9241 12.8045 14.0795L11.4184 12.6934L1.62262 22.4261C1.99274 22.6031 2.40185 22.7106 2.83884 22.7106H29.4607C29.8977 22.7106 30.3068 22.6031 30.6769 22.4261L20.8811 12.6934Z" fill="white" style="fill:white;fill-opacity:1;"/>
</svg>
