<svg width="53" height="53" viewBox="0 0 53 53" fill="none" xmlns="http://www.w3.org/2000/svg">
<path d="M28.593 27.2099C29.4704 27.5305 30.3298 27.8019 31.1662 28.0303C31.423 27.1869 31.6321 26.3326 31.7926 25.4705C31.3027 25.7643 30.8017 26.0545 30.2867 26.3366C29.7234 26.6447 29.1582 26.9331 28.593 27.2099Z" fill="black" style="fill:black;fill-opacity:1;"/>
<path d="M30.5129 9.2379C29.416 6.37046 27.9249 4.67261 26.5137 4.67261C25.1026 4.67261 23.6115 6.37047 22.5137 9.23882C23.8811 9.65269 25.2176 10.1583 26.5137 10.752C27.8095 10.1579 29.1457 9.65195 30.5129 9.2379Z" fill="black" style="fill:black;fill-opacity:1;"/>
<path d="M22.9087 26.3369C22.4444 26.0547 21.9927 25.7659 21.5537 25.4705C21.698 26.3326 21.8862 27.187 22.1174 28.0303C22.8698 27.802 23.6439 27.5317 24.4334 27.2104C23.924 26.933 23.4154 26.6448 22.9087 26.3369Z" fill="black" style="fill:black;fill-opacity:1;"/>
<path d="M24.4334 11.8881C23.6419 11.5658 22.8702 11.3009 22.1157 11.072C21.8971 11.863 21.7091 12.7195 21.5537 13.6317C21.9947 13.336 22.4464 13.0463 22.9091 12.7626C23.416 12.4537 23.9247 12.1691 24.4334 11.8881Z" fill="black" style="fill:black;fill-opacity:1;"/>
<path d="M22.5137 29.856C23.6106 32.7285 25.1033 34.4297 26.5133 34.4297C27.9232 34.4297 29.4159 32.7285 30.5129 29.856C29.1456 29.4453 27.8091 28.9423 26.5133 28.3503C25.2174 28.9423 23.881 29.4453 22.5137 29.856Z" fill="black" style="fill:black;fill-opacity:1;"/>
<path d="M30.2867 12.7635C30.8027 13.0463 31.3037 13.3372 31.7926 13.6317C31.62 12.7204 31.4111 11.8639 31.1682 11.072C30.3298 11.3009 29.4724 11.5667 28.593 11.889C29.1592 12.17 29.7244 12.4546 30.2867 12.7635Z" fill="black" style="fill:black;fill-opacity:1;"/>
<path d="M26.6732 21.311C27.7335 21.311 28.593 20.5231 28.593 19.5511C28.593 18.5792 27.7335 17.7913 26.6732 17.7913C25.6129 17.7913 24.7534 18.5792 24.7534 19.5511C24.7534 20.5231 25.6129 21.311 26.6732 21.311Z" fill="black" style="fill:black;fill-opacity:1;"/>
<path d="M33.8965 23.819C33.7378 25.3484 33.4623 26.863 33.0726 28.3493C34.5322 28.7311 36.0582 28.7729 37.536 28.4714C37.882 28.4042 38.2104 28.2651 38.5005 28.0628C38.7906 27.8605 39.0361 27.5994 39.2214 27.2961C39.9276 25.9806 39.1241 23.6129 37.0218 20.991C36.046 22.0059 35.0017 22.9508 33.8965 23.819Z" fill="black" style="fill:black;fill-opacity:1;"/>
<path d="M29.2617 14.4777C28.3509 13.9281 27.4307 13.4398 26.5133 12.9919C25.5959 13.4398 24.6748 13.929 23.764 14.4777C22.8018 15.0576 21.9022 15.6585 21.0641 16.2704C20.968 17.3129 20.9139 18.4048 20.9139 19.5471C20.9139 20.6894 20.968 21.7813 21.0641 22.8238C21.904 23.4357 22.8018 24.0366 23.764 24.6165C24.6748 25.1661 25.5969 25.6626 26.5133 26.1106C27.4307 25.6626 28.3518 25.1652 29.2617 24.6165C30.2248 24.0366 31.1282 23.4357 31.9625 22.8238C32.0558 21.7813 32.1128 20.6894 32.1128 19.5471C32.1128 18.4048 32.0586 17.3129 31.9625 16.2704C31.1245 15.6585 30.2248 15.0585 29.2617 14.4777ZM26.5133 23.2113C25.775 23.2113 25.0533 22.9964 24.4394 22.5938C23.8255 22.1911 23.3471 21.6189 23.0645 20.9493C22.782 20.2798 22.7081 19.543 22.8521 18.8323C22.9961 18.1215 23.3517 17.4686 23.8737 16.9561C24.3958 16.4437 25.0609 16.0947 25.7851 15.9533C26.5092 15.8119 27.2598 15.8845 27.9419 16.1618C28.624 16.4392 29.207 16.9088 29.6172 17.5114C30.0274 18.114 30.2463 18.8224 30.2463 19.5471C30.2463 20.5189 29.853 21.4509 29.1529 22.1381C28.4529 22.8252 27.5034 23.2113 26.5133 23.2113Z" fill="black" style="fill:black;fill-opacity:1;"/>
<path d="M14.5144 52.028H38.512C38.5108 51.5192 38.3159 51.0317 37.97 50.6719C37.6241 50.3122 37.1553 50.1095 36.6661 50.1082H16.3604C15.8708 50.1082 15.4013 50.3105 15.0551 50.6705C14.7089 51.0305 14.5144 51.5189 14.5144 52.028Z" fill="black" style="fill:black;fill-opacity:1;"/>
<path d="M21.9007 45.6285C21.683 46.6222 21.111 47.5222 20.2738 48.1883H33.0725C32.2346 47.5224 31.6616 46.6224 31.4429 45.6285H21.9007Z" fill="black" style="fill:black;fill-opacity:1;"/>
<path d="M19.4089 15.1636C19.575 13.574 19.8642 11.9996 20.2738 10.455C19.3335 10.2425 18.3738 10.1278 17.41 10.1127C16.7954 10.1043 16.1823 10.1764 15.5863 10.3271C15.2232 10.3971 14.8785 10.5418 14.574 10.7522C14.2694 10.9626 14.0117 11.234 13.817 11.5494C13.0748 12.9212 13.9257 15.3874 16.128 18.1113C17.1521 17.0536 18.2484 16.0686 19.4089 15.1636Z" fill="black" style="fill:black;fill-opacity:1;"/>
<path d="M16.1287 20.991C13.9258 23.611 13.0746 25.9781 13.8171 27.2962C14.0118 27.5993 14.2696 27.8601 14.5742 28.0623C14.8789 28.2644 15.2237 28.4035 15.5869 28.4707C17.1385 28.7726 18.741 28.7315 20.2738 28.3506C19.8638 26.8648 19.5742 25.3506 19.4077 23.8215C18.2479 22.9524 17.1523 22.0066 16.1287 20.991Z" fill="black" style="fill:black;fill-opacity:1;"/>
<path d="M17.3942 19.5511C17.9754 20.1352 18.6147 20.724 19.314 21.311C19.2884 20.7344 19.2756 20.1478 19.2756 19.5511C19.2756 18.9545 19.2884 18.3678 19.314 17.7913C18.6147 18.3782 17.9754 18.9671 17.3942 19.5511Z" fill="black" style="fill:black;fill-opacity:1;"/>
<path d="M52.5906 42.7489V40.8291H0.755798V42.7489C0.755798 43.0035 0.853319 43.2476 1.02691 43.4277C1.20049 43.6077 1.43593 43.7088 1.68142 43.7088H51.665C51.9105 43.7088 52.146 43.6077 52.3195 43.4277C52.4931 43.2476 52.5906 43.0035 52.5906 42.7489Z" fill="black" style="fill:black;fill-opacity:1;"/>
<path d="M35.9524 19.5511C35.3711 18.9671 34.7319 18.3782 34.0326 17.7913C34.0582 18.3685 34.071 18.9551 34.071 19.5511C34.071 20.1472 34.0582 20.7338 34.0326 21.311C34.7319 20.724 35.3711 20.1352 35.9524 19.5511Z" fill="black" style="fill:black;fill-opacity:1;"/>
<path d="M52.5906 1.11493C52.5906 0.870448 52.4931 0.635982 52.3195 0.463108C52.1459 0.290235 51.9105 0.193115 51.665 0.193115H1.68136C1.43587 0.193115 1.20043 0.290235 1.02685 0.463108C0.853258 0.635982 0.755737 0.870448 0.755737 1.11493V38.9093H52.5906V1.11493ZM40.9916 28.2467C40.6802 28.7759 40.2622 29.2352 39.764 29.5958C39.2657 29.9564 38.6979 30.2105 38.0963 30.3419C37.3591 30.5277 36.6009 30.6172 35.8405 30.6083C34.696 30.5893 33.5567 30.4496 32.4416 30.1917C31.106 33.8706 29.0557 36.1438 26.6732 36.1438C24.2906 36.1438 22.2404 33.8706 20.9047 30.1917C19.7897 30.4496 18.6503 30.5893 17.5058 30.6083C16.7458 30.6172 15.9878 30.5277 15.251 30.3419C14.6492 30.2106 14.0812 29.9566 13.5828 29.596C13.0843 29.2354 12.6662 28.776 12.3547 28.2467C11.1616 26.0574 12.2853 22.831 15.0196 19.5512C12.2853 16.2714 11.1616 13.045 12.3547 10.8557C12.6662 10.3264 13.0843 9.86698 13.5828 9.50639C14.0812 9.14579 14.6492 8.89182 15.251 8.76045C17.1221 8.37167 19.0582 8.41995 20.9075 8.90148C22.2431 5.22714 24.2925 2.95855 26.6732 2.95855C29.0539 2.95855 31.1032 5.22714 32.4389 8.90056C34.2884 8.41879 36.225 8.37083 38.0963 8.76045C38.6979 8.89194 39.2657 9.14596 39.764 9.50655C40.2622 9.86714 40.6802 10.3265 40.9916 10.8557C42.1847 13.045 41.061 16.2714 38.3267 19.5512C41.061 22.831 42.1847 26.0574 40.9916 28.2467Z" fill="black" style="fill:black;fill-opacity:1;"/>
<path d="M37.5375 10.3254C36.9697 10.1752 36.3858 10.1038 35.8005 10.1128C34.8824 10.1286 33.9683 10.2437 33.0726 10.4562C33.4627 12.0019 33.7381 13.5772 33.8965 15.1679C35.0013 16.0716 36.0453 17.0551 37.0207 18.1113C39.1184 15.3833 39.9289 12.9188 39.2219 11.5464C39.0365 11.2312 38.7911 10.96 38.5012 10.7498C38.2113 10.5397 37.8831 10.3952 37.5375 10.3254Z" fill="black" style="fill:black;fill-opacity:1;"/>
</svg>
