<svg width="53" height="44" viewBox="0 0 53 44" fill="none" xmlns="http://www.w3.org/2000/svg">
<path d="M36.8016 18.0066C36.4 18.0066 36.0516 17.7131 35.9995 17.3111C35.9432 16.8749 36.2569 16.4764 36.7002 16.4209C39.2583 16.1004 41.549 15.4187 43.1504 14.5012C44.6149 13.6621 45.4213 12.6757 45.4213 11.7238C45.4213 10.6745 44.4777 9.81604 43.6859 9.28034C43.3176 9.03115 43.2244 8.53567 43.4778 8.17328C43.7312 7.8111 44.2353 7.71947 44.6036 7.96866C46.1978 9.04711 47.0404 10.3455 47.0404 11.724C47.0404 13.2884 45.9772 14.7244 43.9656 15.8769C42.1549 16.9143 39.7134 17.6486 36.9049 18.0004C36.8702 18.0046 36.8356 18.0066 36.8016 18.0066Z" fill="black" style="fill:black;fill-opacity:1;"/>
<path d="M33.027 16.8661L30.8682 14.7432C30.552 14.4322 30.0395 14.4322 29.7233 14.7432C29.4073 15.0539 29.4073 15.5581 29.7233 15.8689L30.354 16.4892C27.9355 16.2435 25.7384 15.6898 24.0371 14.8852C22.1244 13.9807 21.0273 12.8282 21.0273 11.7236C21.0273 10.7868 21.8128 9.81302 23.239 8.98169C23.6237 8.75758 23.7506 8.26914 23.5227 7.891C23.2946 7.51265 22.7979 7.38785 22.4134 7.61196C19.9296 9.05984 19.4082 10.647 19.4082 11.7236C19.4082 13.49 20.803 15.1224 23.3355 16.3202C25.3012 17.2496 27.8438 17.8722 30.614 18.1131L29.7233 18.989C29.4073 19.2997 29.4073 19.8039 29.7233 20.1149C29.8814 20.2702 30.0886 20.3479 30.2958 20.3479C30.5029 20.3479 30.7101 20.2702 30.8682 20.1149L33.027 17.992C33.343 17.681 33.343 17.1768 33.027 16.8661Z" fill="black" style="fill:black;fill-opacity:1;"/>
<path d="M27.8866 10.1294V9.93788C27.8866 9.26224 27.466 9.13121 26.9021 9.13121C26.5534 9.13121 26.4406 8.82874 26.4406 8.52627C26.4406 8.22359 26.5534 7.92112 26.9021 7.92112C27.2916 7.92112 27.7019 7.87074 27.7019 7.05392C27.7019 6.46908 27.3635 6.3279 26.943 6.3279C26.4406 6.3279 26.1842 6.44897 26.1842 6.84225C26.1842 7.18494 26.0303 7.41693 25.4356 7.41693C24.6973 7.41693 24.6052 7.26559 24.6052 6.78151C24.6052 5.99516 25.1793 4.97662 26.943 4.97662C28.2454 4.97662 29.2297 5.44039 29.2297 6.80182C29.2297 7.53779 28.9529 8.22359 28.4402 8.45557C29.0452 8.6774 29.486 9.12106 29.486 9.93788V10.1294C29.486 11.7832 28.3274 12.4084 26.8917 12.4084C25.128 12.4084 24.4513 11.3497 24.4513 10.5026C24.4513 10.0488 24.6461 9.92772 25.21 9.92772C25.8663 9.92772 26.0303 10.0689 26.0303 10.4522C26.0303 10.9261 26.4817 11.0371 26.943 11.0371C27.6403 11.0371 27.8866 10.785 27.8866 10.1294Z" fill="black" style="fill:black;fill-opacity:1;"/>
<path d="M35.7103 9.93788V10.0287C35.7103 11.7631 34.613 12.4084 33.198 12.4084C31.783 12.4084 30.6754 11.7631 30.6754 10.0287V7.35639C30.6754 5.62199 31.8136 4.97662 33.2904 4.97662C35.0233 4.97662 35.7103 6.03538 35.7103 6.87231C35.7103 7.35639 35.4744 7.50752 34.9617 7.50752C34.5209 7.50752 34.1311 7.39661 34.1311 6.93285C34.1311 6.54973 33.7211 6.34801 33.2391 6.34801C32.6341 6.34801 32.2751 6.66064 32.2751 7.35639V8.26381C32.6033 7.91096 33.0648 7.82015 33.5571 7.82015C34.7258 7.82015 35.7103 8.32434 35.7103 9.93788ZM32.2751 10.1396C32.2751 10.8353 32.6238 11.1378 33.198 11.1378C33.7723 11.1378 34.1107 10.8353 34.1107 10.1396V10.0488C34.1107 9.31261 33.7723 9.03025 33.1877 9.03025C32.6341 9.03025 32.2751 9.2925 32.2751 9.95799V10.1396Z" fill="black" style="fill:black;fill-opacity:1;"/>
<path d="M36.9511 10.0287V7.35639C36.9511 5.62199 38.0482 4.97662 39.4634 4.97662C40.8784 4.97662 41.9858 5.62199 41.9858 7.35639V10.0287C41.9858 11.7631 40.8784 12.4084 39.4634 12.4084C38.0482 12.4084 36.9511 11.7631 36.9511 10.0287ZM40.3861 7.35639C40.3861 6.66064 40.0377 6.34801 39.4634 6.34801C38.8891 6.34801 38.5508 6.66064 38.5508 7.35639V10.0287C38.5508 10.7244 38.8891 11.0371 39.4634 11.0371C40.0377 11.0371 40.3861 10.7244 40.3861 10.0287V7.35639Z" fill="black" style="fill:black;fill-opacity:1;"/>
<path d="M43.929 4.96965C42.5897 4.96965 41.5004 3.89825 41.5004 2.58138C41.5004 1.26452 42.5897 0.193115 43.929 0.193115C45.2681 0.193115 46.3577 1.26452 46.3577 2.58138C46.3577 3.89825 45.2681 4.96965 43.929 4.96965ZM43.929 1.78529C43.4825 1.78529 43.1195 2.1425 43.1195 2.58138C43.1195 3.02048 43.4825 3.37747 43.929 3.37747C44.3753 3.37747 44.7386 3.02048 44.7386 2.58138C44.7386 2.1425 44.3753 1.78529 43.929 1.78529Z" fill="black" style="fill:black;fill-opacity:1;"/>
<path d="M51.6119 20.6525C51.0074 19.6505 49.6258 19.3958 48.7105 20.143L36.3279 30.0612C36.017 30.3159 35.6371 30.4348 35.2399 30.4348H26.6394C25.6896 30.4348 24.9124 29.6706 24.9124 28.7365C24.9124 27.8024 25.6896 27.0382 26.6394 27.0382H33.9274C34.3764 27.0382 34.8254 26.8853 35.1708 26.5966C35.9652 25.9682 36.1552 24.8304 35.5853 23.9982C34.6354 22.6735 33.0811 21.8413 31.3541 21.8413H23.2027C21.5275 21.8413 19.9386 22.6395 18.9715 23.9982L16.5537 27.3609H14.3086V40.0643H33.4784C35.7753 40.0643 37.9686 39.1641 39.5919 37.5677L50.9038 26.4098C52.4581 24.8813 52.7517 22.5037 51.6464 20.6525H51.6119Z" fill="black" style="fill:black;fill-opacity:1;"/>
<path d="M4.79279 30.3328V24.3887H0.475281V32.0311H3.06579C4.01564 32.0311 4.79279 31.2669 4.79279 30.3328Z" fill="black" style="fill:black;fill-opacity:1;"/>
<path d="M9.1103 24.3887H8.2468V30.3328C8.2468 33.152 5.93261 35.4278 3.06579 35.4278H0.475281V43.0702H9.1103C10.0602 43.0702 10.8373 42.306 10.8373 41.3719V26.087C10.8373 25.153 10.0602 24.3887 9.1103 24.3887Z" fill="black" style="fill:black;fill-opacity:1;"/>
</svg>
