<svg width="51" height="45" viewBox="0 0 51 45" fill="none" xmlns="http://www.w3.org/2000/svg">
<path d="M38.4686 40.0107C37.9665 40.0072 37.472 39.9032 37.0238 39.7069L29.6742 36.3578V40.4468C29.675 40.5996 29.7281 40.7487 29.8267 40.8752C29.9254 41.0076 32.3753 44.1074 38.4686 44.1074C44.5618 44.1074 47.0117 41.0076 47.1104 40.8752C47.209 40.7487 47.2621 40.5996 47.2629 40.4468V36.3578L39.9223 39.6991C39.4726 39.9006 38.9746 40.0073 38.4686 40.0107Z" fill="black" style="fill:black;fill-opacity:1;"/>
<path d="M49.773 31.308L38.9603 26.3876C38.7679 26.3024 38.5546 26.2586 38.3385 26.26C38.1224 26.2613 37.9099 26.3078 37.7189 26.3954L26.9062 31.308C26.6942 31.4088 26.5174 31.5572 26.3943 31.7376C26.2711 31.918 26.2062 32.1237 26.2062 32.3333C26.2062 32.543 26.2711 32.7487 26.3943 32.9291C26.5174 33.1095 26.6942 33.2579 26.9062 33.3587L37.7189 38.2713C37.9106 38.3577 38.1235 38.4029 38.3396 38.4029C38.5557 38.4029 38.7686 38.3577 38.9603 38.2713L48.6845 33.8532V42.1536C48.6845 42.3604 48.7793 42.5587 48.948 42.7049C49.1167 42.8512 49.3455 42.9333 49.5841 42.9333C49.8227 42.9333 50.0515 42.8512 50.2202 42.7049C50.3889 42.5587 50.4836 42.3604 50.4836 42.1536V32.3311V32.3295C50.4841 32.1192 50.4181 31.9128 50.2928 31.7327C50.1675 31.5526 49.9878 31.4057 49.773 31.308Z" fill="black" style="fill:black;fill-opacity:1;"/>
<path d="M27.7557 40.3569V35.4492L26.1089 34.6924C25.6042 34.4575 25.183 34.1066 24.8911 33.6776C24.5992 33.2487 24.4477 32.7581 24.4533 32.2594C24.4588 31.7607 24.6211 31.2728 24.9225 30.8489C25.2238 30.4249 25.6528 30.0811 26.1626 29.8549L36.8669 24.9627C37.3112 24.7604 37.8044 24.6534 38.3057 24.6507C38.8069 24.6479 39.3017 24.7496 39.7488 24.9471L48.5019 28.9498V20.8586L29.7606 26.1097C29.6053 27.0353 29.0731 27.8813 28.2613 28.493C27.4495 29.1047 26.4123 29.4413 25.3392 29.4413C24.2662 29.4413 23.229 29.1047 22.4172 28.493C21.6054 27.8813 21.0732 27.0353 20.9179 26.1097L2.17654 20.8586V39.3426C2.17641 39.7525 2.26893 40.1584 2.44879 40.5371C2.62866 40.9158 2.89236 41.2599 3.22482 41.5497C3.55728 41.8396 3.95199 42.0694 4.38639 42.2262C4.8208 42.3831 5.28639 42.4637 5.75656 42.4636H28.9909C28.6967 42.2099 28.4301 41.933 28.1943 41.6365C27.9082 41.2564 27.7558 40.8116 27.7557 40.3569Z" fill="black" style="fill:black;fill-opacity:1;"/>
<path d="M47.7895 8.17761H2.88851C2.17465 8.17941 1.49061 8.42551 0.985829 8.86215C0.481046 9.29878 0.196541 9.89047 0.194458 10.508V18.0272C0.194577 18.191 0.25457 18.3506 0.36586 18.4832C0.47715 18.6157 0.634038 18.7144 0.814091 18.7652L21.0105 24.3813C21.272 23.5619 21.837 22.8393 22.6188 22.3244C23.4007 21.8094 24.3563 21.5306 25.339 21.5306C26.3217 21.5306 27.2773 21.8094 28.0591 22.3244C28.841 22.8393 29.406 23.5619 29.6674 24.3813L49.8639 18.7652C50.0439 18.7144 50.2008 18.6157 50.3121 18.4832C50.4234 18.3506 50.4834 18.191 50.4835 18.0272V10.508C50.4814 9.89047 50.1969 9.29878 49.6921 8.86215C49.1874 8.42551 48.5033 8.17941 47.7895 8.17761ZM32.5231 17.7942H18.1548C17.4403 17.7942 16.7551 17.5487 16.2498 17.1117C15.7446 16.6746 15.4608 16.0819 15.4608 15.4638C15.4608 14.8458 15.7446 14.2531 16.2498 13.816C16.7551 13.379 17.4403 13.1335 18.1548 13.1335H32.5231C33.2376 13.1335 33.9229 13.379 34.4281 13.816C34.9334 14.2531 35.2172 14.8458 35.2172 15.4638C35.2172 16.0819 34.9334 16.6746 34.4281 17.1117C33.9229 17.5487 33.2376 17.7942 32.5231 17.7942Z" fill="black" style="fill:black;fill-opacity:1;"/>
<path d="M18.2134 4.87827H32.4648V6.5337H37.8494V4.48784C37.8471 3.34943 37.3263 2.25821 36.4012 1.45323C35.476 0.648245 34.2219 0.195122 32.9135 0.193115H17.7647C16.4563 0.195122 15.2022 0.648245 14.277 1.45323C13.3518 2.25821 12.8311 3.34943 12.8288 4.48784V6.5337H18.2134V4.87827Z" fill="black" style="fill:black;fill-opacity:1;"/>
<path d="M25.3391 27.9039C26.7757 27.9039 27.9403 26.8525 27.9403 25.5556C27.9403 24.2586 26.7757 23.2072 25.3391 23.2072C23.9025 23.2072 22.7379 24.2586 22.7379 25.5556C22.7379 26.8525 23.9025 27.9039 25.3391 27.9039Z" fill="black" style="fill:black;fill-opacity:1;"/>
<path d="M32.4957 14.7529H18.1824C17.9452 14.7529 17.7176 14.8272 17.5499 14.9593C17.3821 15.0914 17.2878 15.2706 17.2878 15.4574C17.2878 15.6443 17.3821 15.8235 17.5499 15.9556C17.7176 16.0877 17.9452 16.1619 18.1824 16.1619H32.4957C32.7329 16.1619 32.9605 16.0877 33.1282 15.9556C33.296 15.8235 33.3902 15.6443 33.3902 15.4574C33.3902 15.2706 33.296 15.0914 33.1282 14.9593C32.9605 14.8272 32.7329 14.7529 32.4957 14.7529Z" fill="black" style="fill:black;fill-opacity:1;"/>
</svg>
