<svg width="47" height="53" viewBox="0 0 47 53" fill="none" xmlns="http://www.w3.org/2000/svg">
<path d="M36.0641 13.4583C35.6637 13.0568 35.4148 12.5288 35.3599 11.9644C35.305 11.3999 35.4474 10.8339 35.763 10.3627C36.0785 9.8915 36.5477 9.54424 37.0905 9.38008C37.6333 9.21593 38.2163 9.24502 38.7401 9.4624C39.2639 9.67978 39.6961 10.072 39.9632 10.5723C40.2303 11.0726 40.3157 11.65 40.2048 12.2062C40.094 12.7623 39.7938 13.2629 39.3554 13.6226C38.9169 13.9823 38.3673 14.1789 37.8002 14.1789C37.4775 14.1798 37.1579 14.1166 36.8598 13.9929C36.5618 13.8692 36.2913 13.6875 36.0641 13.4583ZM1.21669 12.7348C1.12237 12.0627 1.12237 11.3808 1.21669 10.7087L2.01401 10.5086L2.66378 10.3429C2.81432 9.70555 3.06757 9.097 3.4136 8.54106L3.068 7.96303L2.64559 7.25667C3.05577 6.71663 3.5375 6.23491 4.07753 5.82473L4.78389 6.24714L5.3599 6.59274C5.91657 6.24716 6.52582 5.99458 7.16371 5.84494L7.32944 5.19213L7.53054 4.39482C8.20155 4.30454 8.88162 4.30454 9.55263 4.39482L9.75373 5.19213L9.91946 5.84494C10.5568 5.99422 11.1655 6.24683 11.7212 6.59274L12.2993 6.24714L13.0056 5.82473C13.5459 6.23464 14.0277 6.7164 14.4376 7.25667L14.0152 7.96303L13.6696 8.54106C14.0162 9.09645 14.2689 9.70522 14.4174 10.3429L15.0692 10.5086L15.8675 10.7087C15.9578 11.381 15.9578 12.0624 15.8675 12.7348L15.0692 12.9359L14.4174 13.0986C14.2691 13.7369 14.0164 14.3464 13.6696 14.9024L14.0152 15.4814L14.4376 16.1838C14.0277 16.7243 13.5459 17.2064 13.0056 17.6167L12.2993 17.1973L11.7212 16.8517C11.1654 17.1973 10.5568 17.4496 9.91946 17.5985L9.75373 18.2513L9.55263 19.0456C8.8819 19.1399 8.20127 19.1399 7.53054 19.0456L7.32944 18.2513L7.16371 17.5985C6.52587 17.4492 5.91661 17.197 5.3599 16.8517L4.78389 17.1973L4.07753 17.6167C3.53747 17.2062 3.05575 16.7241 2.64559 16.1838L3.068 15.4814L3.4136 14.9024C3.06738 14.3458 2.81413 13.7366 2.66378 13.0986L2.01401 12.9359L1.21669 12.7348ZM4.62726 11.7222C4.62803 12.6273 4.94253 13.5041 5.5172 14.2032C6.09187 14.9024 6.89116 15.3807 7.77891 15.5567C8.66667 15.7327 9.58799 15.5955 10.3859 15.1685C11.1839 14.7414 11.8091 14.0509 12.1551 13.2146C12.5011 12.3783 12.5464 11.448 12.2834 10.582C12.0204 9.71601 11.4654 8.96798 10.7128 8.46533C9.96014 7.96268 9.05654 7.73649 8.15587 7.82529C7.2552 7.91409 6.41317 8.3124 5.77321 8.95235C5.40898 9.31567 5.12021 9.74744 4.92354 10.2228C4.72687 10.6982 4.62618 11.2078 4.62726 11.7222ZM32.3251 7.96303L31.9058 7.25667C32.3157 6.7164 32.7974 6.23464 33.3377 5.82473L34.041 6.24714L34.6201 6.59274C35.1767 6.24716 35.786 5.99458 36.4239 5.84494L36.5866 5.19213L36.7877 4.39482C37.4597 4.30454 38.1408 4.30454 38.8128 4.39482L39.0139 5.19213L39.1796 5.84494C39.8166 5.9946 40.4248 6.24718 40.9804 6.59274L41.5594 6.24714L42.2658 5.82473C42.8058 6.23491 43.2876 6.71663 43.6977 7.25667L43.2753 7.96303L42.9297 8.54106C43.2747 9.09731 43.5273 9.7058 43.6775 10.3429L44.3293 10.5086L45.1266 10.7087C45.2183 11.3809 45.2183 12.0625 45.1266 12.7348L44.3293 12.9359L43.6775 13.0986C43.5288 13.7368 43.2761 14.3462 42.9297 14.9024L43.2753 15.4814L43.6977 16.1838C43.2876 16.7241 42.8059 17.2062 42.2658 17.6167L41.5594 17.1973L40.9804 16.8517C40.4248 17.197 39.8165 17.4492 39.1796 17.5985L39.0139 18.2513L38.8128 19.0456C38.141 19.1399 37.4594 19.1399 36.7877 19.0456L36.5866 18.2513L36.4239 17.5985C35.786 17.4492 35.1768 17.197 34.6201 16.8517L34.041 17.1973L33.3377 17.6167C32.7974 17.2064 32.3156 16.7243 31.9058 16.1838L32.3251 15.4814L32.6707 14.9024C32.3252 14.3457 32.0726 13.7365 31.9229 13.0986L31.2711 12.9359L30.4758 12.7348C30.3815 12.0627 30.3815 11.3808 30.4758 10.7087L31.2711 10.5086L31.9229 10.3429C32.0728 9.70565 32.3253 9.0971 32.6707 8.54106L32.3251 7.96303ZM33.8844 11.7222C33.884 12.6286 34.1978 13.5071 34.7725 14.208C35.3471 14.9089 36.147 15.3888 37.0359 15.5661C37.9247 15.7433 38.8475 15.6069 39.6471 15.1801C40.4466 14.7532 41.0735 14.0623 41.4207 13.2252C41.768 12.388 41.8143 11.4563 41.5516 10.5888C41.289 9.72133 40.7337 8.97177 39.9803 8.46782C39.227 7.96388 38.3222 7.73673 37.4202 7.82508C36.5181 7.91343 35.6746 8.31181 35.0334 8.95235C34.6685 9.31535 34.3791 9.74701 34.1819 10.2224C33.9847 10.6978 33.8836 11.2076 33.8844 11.7222ZM8.54007 14.1789C9.10796 14.1791 9.65838 13.9825 10.0976 13.6225C10.5367 13.2625 10.8375 12.7613 10.9486 12.2044C11.0598 11.6475 10.9744 11.0693 10.707 10.5683C10.4396 10.0672 10.0068 9.67444 9.48226 9.45676C8.95774 9.23908 8.37398 9.20999 7.83042 9.37444C7.28686 9.53889 6.81713 9.88671 6.50126 10.3587C6.18539 10.8306 6.04291 11.3974 6.09811 11.9626C6.1533 12.5279 6.40275 13.0564 6.80396 13.4583C7.03169 13.6868 7.30227 13.868 7.60019 13.9917C7.89811 14.1153 8.21751 14.1789 8.54007 14.1789ZM8.46327 47.8894L18.1826 45.6602L17.5036 42.2577C17.3671 41.5756 17.1994 40.944 16.9215 40.4034C16.6522 39.8697 16.2428 39.4194 15.7371 39.1008L8.65527 34.5887C8.28465 34.3595 7.85719 34.2387 7.4214 34.2401C6.97008 34.2334 6.5243 34.3401 6.12488 34.5503C6.10063 34.5645 6.07738 34.5796 6.05111 34.5918C5.74403 34.7689 5.4838 35.017 5.2922 35.3153C5.11612 35.5859 5.01148 35.8967 4.98802 36.2187C4.96516 36.5167 5.02867 36.8149 5.17093 37.0777C5.32133 37.3345 5.53226 37.5506 5.78534 37.7072L10.5601 40.749C10.7227 40.8523 10.8375 41.0159 10.8794 41.2039C10.9213 41.3919 10.8868 41.5889 10.7835 41.7514C10.6801 41.914 10.5165 42.0288 10.3285 42.0707C10.1405 42.1126 9.94356 42.0781 9.78101 41.9748L5.0052 38.932C4.54655 38.6481 4.16671 38.2533 3.90068 37.784C3.62057 37.2766 3.49351 36.6988 3.53487 36.1207C3.57732 35.5552 3.76 35.0093 4.06641 34.5321C4.2995 34.1715 4.59317 33.8539 4.93446 33.5933L3.20947 23.6466C3.04779 22.8402 2.61629 22.3268 2.12618 22.1197C1.92661 22.0355 1.709 22.0032 1.49358 22.0257C1.28396 22.0498 1.08485 22.1305 0.917571 22.2591C0.474955 22.5987 0.161688 23.2929 0.197056 24.3823C0.285984 27.2168 0.262741 29.4208 0.24152 31.1953C0.167751 37.6476 0.161688 38.1913 6.62409 44.3313C7.11925 44.8033 7.52145 45.4621 7.85795 46.221C8.09386 46.7642 8.29602 47.3214 8.46327 47.8894ZM27.8515 34.2189C27.033 34.7274 26.137 35.0988 25.1988 35.3183L24.9573 36.2773L24.6612 37.4496C23.673 37.5883 22.6703 37.5883 21.6821 37.4496L21.386 36.2773L21.1445 35.3183C20.2064 35.0995 19.3106 34.7281 18.4929 34.2189L17.642 34.7272L16.6052 35.3476C15.8107 34.7447 15.1022 34.0361 14.4992 33.2417L15.1167 32.2049L15.625 31.352C15.1166 30.5336 14.7455 29.6375 14.5265 28.6993L13.5665 28.4608L12.3943 28.1657C12.2595 27.1769 12.2595 26.1744 12.3943 25.1857L13.5665 24.8906L14.5265 24.648C14.7459 23.7103 15.1169 22.8146 15.625 21.9964L15.1167 21.1455L14.4992 20.1087C15.1022 19.3145 15.8107 18.6064 16.6052 18.0037L17.642 18.6202L18.4929 19.1285C18.599 19.0638 18.7051 19.0012 18.8142 18.9395V7.91857L17.2994 5.2942C16.7648 5.40376 16.2086 5.31949 15.7303 5.05648C15.2521 4.79347 14.8831 4.36888 14.6893 3.85868C14.4954 3.34848 14.4895 2.78596 14.6725 2.27177C14.8555 1.75759 15.2154 1.32528 15.688 1.05222C16.1605 0.779156 16.7148 0.683148 17.2517 0.781373C17.7886 0.879598 18.273 1.16565 18.6182 1.58834C18.9635 2.01103 19.1471 2.54278 19.1361 3.08845C19.1252 3.63411 18.9205 4.15808 18.5586 4.56661L20.1461 7.31831C20.229 7.43833 20.2734 7.58072 20.2734 7.72657V18.2806C20.5564 18.1836 20.8494 18.1008 21.1445 18.03L21.386 17.07L21.6821 15.8978C21.9327 15.8654 22.1864 15.8392 22.4441 15.821C22.4416 15.8135 22.4406 15.8056 22.441 15.7977V7.4618C21.9248 7.28878 21.4869 6.93779 21.2056 6.47158C20.9243 6.00537 20.818 5.45432 20.9056 4.91693C20.9933 4.37954 21.2692 3.89084 21.6841 3.53817C22.0989 3.18551 22.6257 2.99187 23.1702 2.99187C23.7146 2.99187 24.2414 3.18551 24.6562 3.53817C25.0711 3.89084 25.347 4.37954 25.4347 4.91693C25.5223 5.45432 25.416 6.00537 25.1347 6.47158C24.8534 6.93779 24.4155 7.28878 23.8993 7.4618V15.821C24.1569 15.8392 24.4106 15.8654 24.6612 15.8978L24.9573 17.07L25.1988 18.03C25.4939 18.1008 25.7869 18.1836 26.0699 18.2806V7.72657C26.0689 7.58101 26.1123 7.43861 26.1942 7.31831L27.7828 4.56459C27.4221 4.15616 27.2184 3.63275 27.2082 3.08795C27.198 2.54315 27.3819 2.01248 27.727 1.59082C28.0722 1.16917 28.556 0.884019 29.0921 0.786363C29.6282 0.688708 30.1815 0.784913 30.6532 1.05778C31.1248 1.33064 31.484 1.76237 31.6666 2.27578C31.8492 2.78918 31.8432 3.35078 31.6497 3.86017C31.4562 4.36955 31.0878 4.7935 30.6104 5.05622C30.133 5.31894 29.5778 5.40329 29.0439 5.2942L27.5291 7.91857V18.9395C27.6352 19.0012 27.7444 19.0638 27.8515 19.1285L28.7013 18.6202L29.7382 18.0037C30.5326 18.6064 31.2411 19.3145 31.8441 20.1087L31.2236 21.1455L30.7153 21.9964C31.2246 22.814 31.5958 23.7098 31.8138 24.648L32.7738 24.8906L33.946 25.1857C34.0848 26.1742 34.0848 27.1772 33.946 28.1657L32.7738 28.4608L31.8168 28.6993C31.5962 29.6384 31.2242 30.5354 30.7153 31.355L31.2236 32.2049L31.8441 33.2417C31.2411 34.0361 30.5326 34.7447 29.7382 35.3476L28.7013 34.7272L27.8515 34.2189ZM27.4816 30.9851C28.4775 29.9881 29.097 28.6767 29.2344 27.2742C29.3719 25.8718 29.0189 24.465 28.2356 23.2936C27.4522 22.1222 26.287 21.2586 24.9384 20.8499C23.5898 20.4412 22.1412 20.5127 20.8393 21.0523C19.5375 21.5918 18.463 22.566 17.7989 23.8088C17.1347 25.0517 16.922 26.4864 17.1969 27.8685C17.4718 29.2506 18.2174 30.4946 19.3067 31.3887C20.3959 32.2828 21.7615 32.7715 23.1707 32.7718C23.9715 32.7727 24.7646 32.6153 25.5045 32.3087C26.2443 32.0021 26.9162 31.5523 27.4816 30.9851ZM45.4258 22.2591C45.2579 22.1315 45.0591 22.0509 44.8498 22.0257C44.6343 22.003 44.4167 22.0353 44.2172 22.1197C43.724 22.3268 43.2935 22.8402 43.1339 23.6466L41.4058 33.5933C41.7486 33.8522 42.0426 34.1701 42.2739 34.5321C42.5816 35.0086 42.7644 35.555 42.8054 36.1207C42.8483 36.699 42.7211 37.2771 42.4396 37.784C42.1748 38.2532 41.7959 38.648 41.3381 38.932L36.5633 41.9748C36.4828 42.026 36.3931 42.0608 36.2991 42.0774C36.2051 42.0939 36.1088 42.0918 36.0157 42.0711C35.9226 42.0504 35.8344 42.0115 35.7563 41.9568C35.6782 41.902 35.6116 41.8324 35.5604 41.7519C35.5092 41.6714 35.4743 41.5817 35.4578 41.4877C35.4412 41.3937 35.4434 41.2974 35.4641 41.2043C35.4848 41.1112 35.5236 41.023 35.5783 40.9449C35.6331 40.8668 35.7027 40.8002 35.7832 40.749L40.556 37.7072C40.8099 37.5521 41.0208 37.3356 41.1694 37.0777C41.3134 36.8155 41.3773 36.5169 41.3533 36.2187C41.3289 35.8969 41.2243 35.5863 41.0491 35.3153C40.8586 35.0161 40.5981 34.7678 40.2902 34.5918C40.2659 34.5796 40.2427 34.5645 40.2185 34.5503C39.8192 34.3405 39.3739 34.2339 38.9229 34.2401C38.4867 34.2377 38.0587 34.3586 37.6881 34.5887L30.6062 39.1008C30.1005 39.4194 29.6911 39.8697 29.4219 40.4034C29.145 40.944 28.9762 41.5756 28.8408 42.2577L28.1607 45.6602L37.877 47.8894C38.0456 47.3218 38.2478 46.7647 38.4823 46.221C38.8189 45.4621 39.2241 44.8033 39.7172 44.3313C46.1786 38.1913 46.1726 37.6476 46.1018 31.1953C46.0806 29.4208 46.0574 27.2168 46.1463 24.3823C46.1816 23.2929 45.8684 22.5987 45.4258 22.2591ZM27.1633 46.9264C27.1421 46.9203 27.1219 46.9153 27.1006 46.9092L26.4014 46.7495L25.7688 49.5103L38.7663 52.4935L39.3979 49.7327L27.1896 46.9294C27.1805 46.9294 27.1714 46.9264 27.1633 46.9264ZM19.2427 46.9092C19.2215 46.9153 19.1982 46.9203 19.178 46.9264C19.1689 46.9264 19.1629 46.9294 19.1538 46.9294L6.94241 49.7327L7.57702 52.4935L20.5746 49.5103L19.939 46.7495L19.2427 46.9092ZM26.4509 23.396C25.6922 22.6381 24.6943 22.1666 23.6271 22.062C22.5598 21.9573 21.4893 22.2259 20.5979 22.8221C19.7065 23.4182 19.0494 24.305 18.7385 25.3313C18.4275 26.3576 18.4821 27.4599 18.8928 28.4505C19.3035 29.4411 20.045 30.2586 20.9909 30.7639C21.9368 31.2691 23.0286 31.4307 24.0803 31.2212C25.132 31.0117 26.0785 30.444 26.7586 29.6149C27.4387 28.7858 27.8103 27.7465 27.81 26.6742C27.8105 26.0652 27.6906 25.4621 27.4574 24.8995C27.2241 24.337 26.8821 23.826 26.4509 23.396Z" fill="black" style="fill:black;fill-opacity:1;"/>
</svg>
