<svg width="62" height="56" viewBox="0 0 62 56" fill="none" xmlns="http://www.w3.org/2000/svg">
<path d="M7.10844 26.3513C6.90456 24.2193 7.09981 22.1121 7.68622 20.076L4.04221 17.0681C2.85819 20.1407 2.4011 23.4571 2.71803 26.7712C3.83888 38.4918 14.2861 47.1152 26.0068 45.9944C27.056 45.894 28.0963 45.7154 29.1141 45.4646L28.6884 41.0128C27.6796 41.3047 26.6427 41.503 25.5869 41.6039C16.2873 42.4933 7.99777 35.6509 7.10844 26.3513Z" fill="white" style="fill:white;fill-opacity:1;"/>
<path d="M12.912 15.9681L13.8507 12.6205L8.39196 8.11471L7.45327 11.4623L4.3443 13.0184L9.80303 17.5242L12.912 15.9681Z" fill="white" style="fill:white;fill-opacity:1;"/>
<path d="M23.4125 18.8638C22.2894 18.9712 21.2695 19.3889 20.4289 20.0233L24.8523 23.6746L22.7419 26.2314L18.4432 22.6832C18.1406 23.4936 18.0119 24.3827 18.0997 25.3002C18.4094 28.5393 21.2968 30.9226 24.5359 30.6128C27.7752 30.3031 30.1585 27.4157 29.8487 24.1766C29.539 20.9373 26.6517 18.554 23.4125 18.8638Z" fill="white" style="fill:white;fill-opacity:1;"/>
<path d="M48.752 47.4646L45.4517 47.7802L45.1311 44.4283L32.0736 41.5839L33.1697 53.0457L61.8094 50.3069L60.7133 38.845L48.4315 44.1127L48.752 47.4646Z" fill="white" style="fill:white;fill-opacity:1;"/>
<path d="M53.2352 32.5984L52.6865 26.8609L51.729 26.4927C47.1494 24.7315 42.7165 25.1554 38.5537 27.7526L37.6833 28.2957L38.2319 34.0332L31.4136 34.6852L31.7419 38.1186L46.5002 41.3335L60.3819 35.3798L60.0535 31.9464L53.2352 32.5984ZM49.9349 32.914L41.5324 33.7175L41.1828 30.062C43.8905 28.6312 46.6554 28.3668 49.5853 29.2585L49.9349 32.914Z" fill="white" style="fill:white;fill-opacity:1;"/>
<path d="M22.3613 7.87279C31.6248 6.98692 39.8849 13.773 40.828 23.0173C42.0887 22.5906 43.3718 22.3121 44.6696 22.188C44.8359 22.1721 45.0026 22.1588 45.1694 22.148C43.776 10.7128 33.4754 2.37949 21.9415 3.48249C18.3283 3.82802 15.0102 5.06088 12.1805 6.94301L15.7777 9.91229C17.7513 8.81744 19.9751 8.10098 22.3613 7.87279Z" fill="white" style="fill:white;fill-opacity:1;"/>
<path d="M34.6162 31.0485L34.3831 28.6113L34.1878 26.5689L35.9285 25.4829L36.7989 24.9399C37.064 24.7745 37.3308 24.6179 37.5987 24.4669C37.5918 24.127 37.5723 23.785 37.5394 23.4411C36.8241 15.9612 30.1568 10.4578 22.6768 11.1731C20.7245 11.3598 18.8903 11.9431 17.2134 12.9076L16.1974 16.5305L17.8278 17.8763C19.2434 16.605 21.0615 15.758 23.0967 15.5634C28.1557 15.0796 32.6652 18.8018 33.149 23.8609C33.4313 26.8135 32.2795 29.577 30.2669 31.4643L31.0982 31.3848L34.6162 31.0483L34.6162 31.0485Z" fill="white" style="fill:white;fill-opacity:1;"/>
<path d="M24.8515 33.9132C19.7926 34.397 15.2832 30.6748 14.7994 25.6158C14.624 23.7823 15.0035 22.0221 15.7965 20.4985L14.087 19.0874L10.978 20.6436C10.4254 22.3863 10.2333 24.1991 10.409 26.0357C11.1243 33.5155 17.7916 39.0189 25.2715 38.3036C26.3483 38.2006 27.3838 37.9735 28.3659 37.6391L28.1136 35.0007L27.9284 33.0638C26.9852 33.5129 25.95 33.8083 24.8515 33.9132Z" fill="white" style="fill:white;fill-opacity:1;"/>
</svg>
