<svg width="68" height="68" viewBox="0 0 68 68" fill="none" xmlns="http://www.w3.org/2000/svg">
<path d="M49.9379 13.0841C50.5236 9.88834 54.1761 7.03836 57.3021 10.1643C60.3762 13.2383 57.6711 16.8216 54.5413 17.4967C51.5884 18.1337 49.3876 16.0873 49.9381 13.0841H49.9379ZM54.3823 49.938C51.3789 49.3875 49.3327 51.5884 49.9697 54.5413C50.6448 57.671 54.2281 60.3762 57.3021 57.3021C60.428 54.1762 57.5781 50.5236 54.3823 49.938ZM12.9251 49.9698C9.79536 50.6451 7.09023 54.2282 10.1643 57.3022C13.2902 60.4282 16.9428 57.5782 17.5283 54.3824C18.0788 51.379 15.8778 49.3328 12.9251 49.9698ZM43.6883 23.7781C45.4472 25.537 46.7427 27.7592 47.3764 30.2456L50.7822 26.8396C51.3327 26.2891 51.9883 25.9978 52.7658 25.9579L58.794 25.2732C59.4975 25.2371 60.1025 25.0777 60.7026 24.7091L66.1768 21.3464C68.7456 19.8633 67.0236 17.2777 64.9382 18.2794L59.1584 21.1316C58.8588 21.2794 58.5726 21.3461 58.2385 21.3461H54.0798C53.5073 21.3461 53.0146 21.1421 52.6098 20.7373L49.6693 17.7968L46.7288 14.8564C46.324 14.4515 46.1198 13.9588 46.1198 13.3863V9.22767C46.1198 8.89355 46.1867 8.6073 46.3346 8.30771L49.1867 2.52798C50.1883 0.442668 47.6028 -1.2795 46.1197 1.28931L42.7571 6.76353C42.3884 7.36368 42.2289 7.96864 42.193 8.67209L41.5082 14.7004C41.4685 15.4778 41.177 16.1334 40.6265 16.6839L37.2205 20.0899C39.7071 20.7236 41.9294 22.0192 43.6883 23.7781ZM1.28917 21.3466L6.7634 24.7092C7.36354 25.0778 7.96851 25.2374 8.67196 25.2733L14.7002 25.958C15.4777 25.9978 16.1333 26.2893 16.6838 26.8398L20.0897 30.2457C20.7234 27.7592 22.0191 25.537 23.778 23.7781C25.5367 22.0193 27.7589 20.7237 30.2455 20.0899L26.8396 16.6839C26.2891 16.1334 25.9977 15.4778 25.9579 14.7004L25.2732 8.67209C25.2371 7.96864 25.0777 7.36368 24.7091 6.76353L21.3464 1.28931C19.8633 -1.2795 17.2777 0.442531 18.2794 2.52798L21.1316 8.30771C21.2794 8.6073 21.3462 8.89355 21.3462 9.22767V13.3863C21.3462 13.9588 21.1422 14.4515 20.7373 14.8564L17.7969 17.7968L14.8564 20.7373C14.4515 21.1421 13.9588 21.3463 13.3863 21.3463H9.22767C8.89355 21.3463 8.60731 21.2794 8.30771 21.1317L2.52798 18.2795C0.442669 17.2779 -1.27964 19.8635 1.28917 21.3466ZM66.1771 46.12L60.7027 42.7573C60.1026 42.3887 59.4976 42.2291 58.7942 42.1932L52.7659 41.5085C51.9884 41.4687 51.3329 41.1772 50.7824 40.6268L47.3765 37.2208C46.7428 39.7073 45.4472 41.9294 43.6884 43.6883C41.9297 45.4472 39.7075 46.7427 37.2208 47.3765L40.6268 50.7825C41.1773 51.333 41.4687 51.9885 41.5085 52.766L42.1932 58.7943C42.2293 59.4977 42.3887 60.1027 42.7573 60.7028L46.12 66.1771C47.6031 68.7459 50.1887 67.0238 49.187 64.9384L46.3348 59.1587C46.187 58.8591 46.1203 58.5728 46.1203 58.2387V54.0801C46.1203 53.5076 46.3243 53.0148 46.7291 52.61L49.6696 49.6695L52.61 46.729C53.0149 46.3242 53.5076 46.1201 54.0801 46.1201H58.2387C58.5729 46.1201 58.8591 46.1869 59.1587 46.3347L64.9384 49.1869C67.0237 50.1885 68.7459 47.6031 66.1771 46.12ZM23.778 43.6884C22.0191 41.9295 20.7236 39.7075 20.0897 37.2208L16.6838 40.6268C16.1334 41.1772 15.4778 41.4686 14.7004 41.5085L8.67209 42.1932C7.96864 42.2293 7.36368 42.3887 6.76354 42.7573L1.28931 46.12C-1.2795 47.6031 0.442531 50.1887 2.52798 49.187L8.30771 46.3348C8.60731 46.187 8.89355 46.1202 9.22767 46.1202H13.3863C13.9588 46.1202 14.4515 46.3242 14.8564 46.729L17.7969 49.6695L20.7373 52.61C21.1422 53.0148 21.3463 53.5076 21.3463 54.0801V58.2387C21.3463 58.5728 21.2794 58.8591 21.1316 59.1587L18.2794 64.9384C17.2777 67.0237 19.8633 68.7459 21.3464 66.1771L24.7091 60.7028C25.0777 60.1027 25.2373 59.4977 25.2732 58.7943L25.9579 52.766C25.9977 51.9885 26.2891 51.333 26.8396 50.7825L30.2455 47.3765C27.7589 46.7428 25.5369 45.4473 23.778 43.6884ZM13.084 17.5285C16.0873 18.079 18.1336 15.878 17.4966 12.9252C16.8215 9.79535 13.2382 7.09036 10.1641 10.1644C7.03823 13.2903 9.88821 16.9429 13.084 17.5285ZM28.5749 7.63411C28.6346 7.63411 28.6943 7.62874 28.754 7.6176C32.0359 6.99572 35.4504 6.99834 38.7124 7.61554C39.2362 7.71499 39.7401 7.37152 39.8396 6.84909C39.939 6.32666 39.5943 5.8228 39.0705 5.72321C35.5764 5.06158 31.91 5.05883 28.3959 5.72528C27.8721 5.82404 27.5274 6.3279 27.6269 6.85047C27.7197 7.31196 28.1175 7.63411 28.575 7.63411H28.5749ZM60.6184 39.8367C60.6781 39.8472 60.7377 39.8532 60.7974 39.8532C61.2483 39.8532 61.6527 39.531 61.7389 39.0688C62.0704 37.3191 62.2428 35.523 62.2428 33.7315C62.2428 31.94 62.0704 30.1492 61.7389 28.3943C61.6395 27.8718 61.1356 27.5277 60.6118 27.6271C60.0948 27.7266 59.7499 28.2297 59.8494 28.7529C60.1543 30.3899 60.3135 32.0646 60.3135 33.7315C60.3135 35.3983 60.1609 37.0784 59.8494 38.7113C59.7499 39.2338 60.0948 39.7371 60.6184 39.8364V39.8367ZM6.84786 27.6274C6.33065 27.5286 5.82019 27.8721 5.72734 28.3945C5.39584 30.1456 5.22348 31.9409 5.22348 33.7317C5.22348 35.5226 5.39584 37.3134 5.72734 39.0691C5.81359 39.5313 6.218 39.8534 6.6689 39.8534C6.7286 39.8534 6.7883 39.8475 6.84786 39.8369C7.37166 39.7375 7.71637 39.2343 7.61692 38.7119C7.30536 37.0736 7.15281 35.3981 7.15281 33.732C7.15281 32.066 7.30536 30.3864 7.61692 28.7529C7.71637 28.2304 7.37166 27.7271 6.84786 27.6277V27.6274ZM38.7123 59.8466C35.437 60.4678 32.0158 60.4652 28.7538 59.8479C28.23 59.7485 27.7262 60.0927 27.6267 60.6151C27.5273 61.1382 27.872 61.6414 28.3958 61.741C30.1461 62.0725 31.9429 62.2403 33.733 62.2403C35.5231 62.2403 37.3132 62.0712 39.0704 61.7397C39.5942 61.6403 39.9389 61.1357 39.8394 60.614C39.74 60.0916 39.2361 59.7474 38.7123 59.8468V59.8466ZM34.6959 21.9393V26.4231C35.8794 26.3314 37.0117 26.0714 38.0691 25.6677C37.9699 25.4534 37.8668 25.2456 37.7599 25.0454C36.9126 23.4562 35.8499 22.3435 34.6959 21.9393ZM39.8008 42.6239C39.6889 42.8646 39.5728 43.0982 39.4525 43.324C39.1342 43.9209 38.7855 44.4664 38.4101 44.9538C39.3529 44.5604 40.2356 44.0516 41.0404 43.4451C40.6451 43.147 40.2312 42.8726 39.8009 42.6239H39.8008ZM34.6959 45.5274C35.8499 45.1232 36.9126 44.0104 37.7599 42.4213C37.8668 42.2209 37.9698 42.0133 38.0691 41.799C37.0117 41.3951 35.8794 41.1353 34.6959 41.0435V45.5275V45.5274ZM39.6423 34.6961H34.6959V39.1133C36.1138 39.2098 37.4779 39.5181 38.7569 40.0069C39.2507 38.4361 39.5638 36.6321 39.6423 34.6961ZM34.6959 32.7704H39.6423C39.5638 30.8345 39.2507 29.0303 38.7567 27.4596C37.4778 27.9484 36.1136 28.2567 34.6957 28.3533V32.7704H34.6959ZM45.8485 34.6961H41.5692C41.4844 36.9227 41.1079 39.0078 40.5104 40.8195C41.2137 41.2061 41.8799 41.6508 42.5026 42.1471C44.3901 40.1803 45.6225 37.5795 45.8485 34.6961ZM39.8008 24.8426C40.231 24.5939 40.6449 24.3195 41.0401 24.0214C40.2353 23.4149 39.3526 22.9063 38.4098 22.5129C38.7852 23.0002 39.134 23.5458 39.4523 24.1426C39.5727 24.3685 39.6889 24.6019 39.8006 24.8426H39.8008ZM28.0135 43.3239C27.8932 43.098 27.7769 42.8645 27.6652 42.6238C27.235 42.8725 26.8212 43.1469 26.4259 43.445C27.2307 44.0514 28.1132 44.5601 29.056 44.9535C28.6807 44.4662 28.3318 43.9206 28.0137 43.3238L28.0135 43.3239ZM24.9634 42.1471C25.5861 41.6508 26.2523 41.2061 26.9556 40.8195C26.3579 39.0078 25.9816 36.9227 25.8968 34.6961H21.6175C21.8435 37.5795 23.0759 40.1803 24.9634 42.1471ZM42.5025 25.3194C41.8798 25.8155 41.2136 26.2604 40.5103 26.647C41.1079 28.4588 41.4843 30.5438 41.569 32.7704H45.8483C45.6223 29.8868 44.39 27.2863 42.5025 25.3194ZM32.7701 21.9393C31.6162 22.3435 30.5534 23.4562 29.7061 25.0454C29.5992 25.2458 29.4962 25.4534 29.3969 25.6677C30.4543 26.0715 31.5866 26.3314 32.77 26.4231L32.7701 21.9393ZM32.7701 28.3533C31.3524 28.2567 29.9881 27.9484 28.7093 27.4596C28.2153 29.0304 27.9022 30.8345 27.8237 32.7704H32.7701V28.3533ZM28.0135 24.1426C28.3318 23.5458 28.6807 23.0002 29.0559 22.5129C28.1131 22.9063 27.2306 23.4149 26.4257 24.0214C26.8211 24.3195 27.2348 24.5939 27.6651 24.8426C27.7769 24.6019 27.893 24.3685 28.0134 24.1426H28.0135ZM32.7701 34.6961H27.8237C27.9022 36.6321 28.2153 38.4361 28.7093 40.0069C29.9882 39.5181 31.3524 39.2098 32.7701 39.1133V34.6961ZM32.7701 45.5274V41.0435C31.5866 41.1353 30.4544 41.3951 29.397 41.799C29.4962 42.0133 29.5994 42.221 29.7063 42.4213C30.5536 44.0104 31.6162 45.1231 32.7703 45.5274H32.7701ZM21.6175 32.7704H25.8968C25.9816 30.5438 26.3579 28.4588 26.9556 26.647C26.2523 26.2604 25.5861 25.8155 24.9634 25.3194C23.0758 27.2863 21.8434 29.887 21.6175 32.7704Z" fill="white" style="fill:white;fill-opacity:1;"/>
</svg>
