<svg width="42" height="42" viewBox="0 0 42 42" fill="none" xmlns="http://www.w3.org/2000/svg">
<circle cx="20.9273" cy="20.9273" r="20.9273" fill="#0A4C22" style="fill:#0A4C22;fill:color(display-p3 0.0392 0.2980 0.1333);fill-opacity:1;"/>
<path d="M30.201 14.9034L31.8973 12.2456L33.2264 13.0938L31.5302 15.7517L30.201 14.9034Z" fill="white" style="fill:white;fill-opacity:1;"/>
<path d="M25.3783 12.7666L26.3893 9.78387L27.8824 10.29L26.8713 13.2727L25.3783 12.7666Z" fill="white" style="fill:white;fill-opacity:1;"/>
<path d="M20.138 8.96887H21.7147V12.1222H20.138V8.96887Z" fill="white" style="fill:white;fill-opacity:1;"/>
<path d="M13.9756 10.2817L15.4686 9.77563L16.4797 12.7584L14.9866 13.2645L13.9756 10.2817Z" fill="white" style="fill:white;fill-opacity:1;"/>
<path d="M8.62582 13.0968L9.95494 12.2486L11.6512 14.9064L10.3221 15.7547L8.62582 13.0968Z" fill="white" style="fill:white;fill-opacity:1;"/>
<path d="M28.0214 20.0055C28.0214 20.9662 27.832 21.8969 27.4715 22.7556C27.5194 22.7539 27.5674 22.753 27.6156 22.753C28.6685 22.753 29.6583 23.163 30.4028 23.9075L31.1918 24.6966C32.3864 23.7503 33.4663 22.687 34.3807 21.5647C32.3092 19.1852 29.5861 17.0316 26.5993 15.741C27.5219 16.9624 28.0214 18.4444 28.0214 20.0055Z" fill="white" style="fill:white;fill-opacity:1;"/>
<path d="M23.6788 26.5468C22.819 26.908 21.8873 27.0978 20.9264 27.0978C19.0345 27.0978 17.2551 26.3634 15.9159 25.0297C14.5718 23.6911 13.8315 21.9068 13.8315 20.0055C13.8315 18.4425 14.3323 16.9587 15.2573 15.7362C14.8869 15.8969 14.5163 16.0728 14.1455 16.2642C11.8272 17.4612 9.54972 19.1972 7.47412 21.5821C10.8101 25.4253 15.8224 28.6771 20.9264 28.6771C21.9576 28.6771 22.994 28.5446 24.0177 28.3008C23.7726 27.7496 23.6569 27.1487 23.6788 26.5468Z" fill="white" style="fill:white;fill-opacity:1;"/>
<path d="M27.6155 24.3296C27.2566 24.3296 26.91 24.4092 26.5955 24.5597L25.3468 23.311C26.0359 22.3918 26.4446 21.2488 26.4446 20.0054C26.4446 16.9409 23.9632 14.4897 20.9264 14.4897C17.8875 14.4897 15.4081 16.9432 15.4081 20.0054C15.4081 23.07 17.8896 25.5211 20.9264 25.5211C22.1639 25.5211 23.3087 25.1141 24.231 24.4249L25.4817 25.6756C25.063 26.5546 25.2166 27.6402 25.9433 28.3669L29.8453 32.2689L33.1898 28.9243L29.2878 25.0223C28.8411 24.5756 28.2472 24.3296 27.6155 24.3296ZM20.9264 22.3704C19.6223 22.3704 18.5614 21.3095 18.5614 20.0054C18.5614 18.7014 19.6223 17.6405 20.9264 17.6405C22.2304 17.6405 23.2913 18.7014 23.2913 20.0054C23.2913 21.3095 22.2304 22.3704 20.9264 22.3704Z" fill="white" style="fill:white;fill-opacity:1;"/>
<path d="M20.9264 20.7938C21.3617 20.7938 21.7147 20.4409 21.7147 20.0055C21.7147 19.5701 21.3617 19.2172 20.9264 19.2172C20.491 19.2172 20.138 19.5701 20.138 20.0055C20.138 20.4409 20.491 20.7938 20.9264 20.7938Z" fill="white" style="fill:white;fill-opacity:1;"/>
</svg>
