<svg width="42" height="42" viewBox="0 0 42 42" fill="none" xmlns="http://www.w3.org/2000/svg">
<circle cx="20.9273" cy="20.9273" r="20.9273" fill="#0A4C22" style="fill:#0A4C22;fill:color(display-p3 0.0392 0.2980 0.1333);fill-opacity:1;"/>
<path d="M20.8841 20.603L23.3897 18.0974C22.8262 17.7377 22.1581 17.5283 21.4415 17.5283C19.4388 17.5283 17.8094 19.1576 17.8094 21.1603C17.8094 23.163 19.4388 24.7924 21.4415 24.7924C23.4442 24.7924 25.0735 23.163 25.0735 21.1603C25.0735 20.4438 24.8641 19.7756 24.5044 19.2121L21.9988 21.7177L20.8841 20.603Z" fill="white" style="fill:white;fill-opacity:1;"/>
<path d="M33.9142 21.1605C33.9142 19.0183 33.367 16.9235 32.328 15.0696L29.2223 15.4952C30.3838 17.086 31.0704 19.0444 31.0704 21.1605C31.0704 26.4699 26.7509 30.7894 21.4414 30.7894C16.1319 30.7894 11.8125 26.4699 11.8125 21.1605C11.8125 15.851 16.132 11.5315 21.4415 11.5315C23.5575 11.5315 25.5159 12.2182 27.1067 13.3796L27.5323 10.2739C25.6784 9.23497 23.5836 8.68774 21.4415 8.68774C18.1099 8.68774 14.9777 9.98515 12.6219 12.3409C10.2662 14.6967 8.96875 17.8289 8.96875 21.1605C8.96875 24.492 10.2662 27.6242 12.6219 29.98C14.9777 32.3358 18.1098 33.6332 21.4415 33.6332C24.7731 33.6332 27.9052 32.3358 30.261 29.98C32.6168 27.6242 33.9142 24.4921 33.9142 21.1605Z" fill="white" style="fill:white;fill-opacity:1;"/>
<path d="M21.4415 13.108C17.0014 13.108 13.389 16.7203 13.389 21.1605C13.389 25.6006 17.0013 29.2129 21.4415 29.2129C25.8816 29.2129 29.4939 25.6006 29.4939 21.1605C29.4939 19.2237 28.8064 17.4445 27.6629 16.0538L25.6379 18.0788C26.2738 18.9423 26.6501 20.0082 26.6501 21.1605C26.6501 24.0325 24.3135 26.369 21.4415 26.369C18.5695 26.369 16.2329 24.0325 16.2329 21.1605C16.2329 18.2884 18.5695 15.9519 21.4415 15.9519C22.5938 15.9519 23.6596 16.3282 24.5232 16.9641L26.5481 14.9391C25.1574 13.7955 23.3783 13.108 21.4415 13.108Z" fill="white" style="fill:white;fill-opacity:1;"/>
<path d="M32.6333 6.72656L29.1296 10.2302L28.6147 13.9872L32.3717 13.4723L35.8754 9.96865L33.5104 9.0915L32.6333 6.72656Z" fill="white" style="fill:white;fill-opacity:1;"/>
</svg>
