<svg width="51" height="52" viewBox="0 0 51 52" fill="none" xmlns="http://www.w3.org/2000/svg">
<rect x="0.151871" y="0.637939" width="50.8178" height="50.8178" rx="5.25701" fill="#0F231B" style="fill:#0F231B;fill:color(display-p3 0.0588 0.1373 0.1059);fill-opacity:1;"/>
<path d="M40.8148 34.8539L34.366 30.5533C33.5476 30.0119 32.4506 30.1901 31.8456 30.9626L29.9671 33.3779C29.7257 33.6962 29.2869 33.7885 28.9376 33.5945L28.5803 33.3975C27.3958 32.7519 25.9219 31.9481 22.9524 28.9775C19.9828 26.0069 19.1774 24.5319 18.5317 23.3495L18.3358 22.9922C18.1391 22.643 18.2297 22.2023 18.5482 21.959L20.9618 20.0811C21.734 19.476 21.9124 18.3793 21.3717 17.5607L17.0711 11.1119C16.5169 10.2782 15.405 10.028 14.5471 10.5437L11.8504 12.1636C11.0031 12.6618 10.3815 13.4685 10.1158 14.4148C9.14479 17.953 9.8753 24.0593 18.8705 33.0556C26.026 40.2105 31.3529 42.1347 35.0143 42.1347C35.8569 42.1383 36.6963 42.0286 37.5097 41.8087C38.4562 41.5434 39.2631 40.9217 39.7609 40.0741L41.3824 37.3791C41.8989 36.521 41.6488 35.4084 40.8148 34.8539ZM40.4675 36.8343L38.8498 39.531C38.4923 40.1427 37.912 40.5925 37.2304 40.7861C33.964 41.6829 28.2575 40.9401 19.6217 32.3043C10.986 23.6686 10.2433 17.9625 11.14 14.6957C11.3339 14.0133 11.7843 13.4322 12.3968 13.0742L15.0934 11.4564C15.4657 11.2324 15.9482 11.341 16.1887 11.7028L18.5249 15.2101L20.4857 18.151C20.7205 18.5061 20.6433 18.982 20.3083 19.2448L17.8942 21.1227C17.1595 21.6845 16.9497 22.7009 17.402 23.5077L17.5937 23.856C18.2723 25.1005 19.1159 26.6487 22.1959 29.7282C25.2759 32.8076 26.8236 33.6513 28.0676 34.3298L28.4164 34.522C29.223 34.9743 30.2396 34.7646 30.8014 34.0299L32.6793 31.6157C32.9421 31.2809 33.4178 31.2038 33.773 31.4384L40.2213 35.739C40.5833 35.9793 40.6918 36.4621 40.4675 36.8343Z" fill="white" style="fill:white;fill-opacity:1;"/>
<path d="M27.8434 15.5875C32.826 15.593 36.8638 19.6309 36.8694 24.6135C36.8694 24.9067 37.1071 25.1444 37.4003 25.1444C37.6936 25.1444 37.9312 24.9067 37.9312 24.6135C37.9251 19.0446 33.4122 14.5317 27.8434 14.5256C27.5501 14.5256 27.3125 14.7633 27.3125 15.0566C27.3125 15.3498 27.5501 15.5875 27.8434 15.5875Z" fill="white" style="fill:white;fill-opacity:1;"/>
<path d="M27.8434 18.7733C31.0674 18.7771 33.68 21.3897 33.6838 24.6136C33.6838 24.9069 33.9215 25.1445 34.2147 25.1445C34.5079 25.1445 34.7456 24.9069 34.7456 24.6136C34.7412 20.8034 31.6535 17.7158 27.8434 17.7114C27.5501 17.7114 27.3125 17.9491 27.3125 18.2423C27.3125 18.5356 27.5501 18.7733 27.8434 18.7733Z" fill="white" style="fill:white;fill-opacity:1;"/>
<path d="M27.5488 23.0976C29.0635 23.0994 30.291 24.3268 30.2928 25.8416C30.2928 26.1447 30.5386 26.3904 30.8416 26.3904C31.1447 26.3904 31.3904 26.1447 31.3904 25.8416C31.388 23.721 29.6694 22.0024 27.5488 22C27.2457 22 27 22.2457 27 22.5488C27 22.8519 27.2457 23.0976 27.5488 23.0976Z" fill="white" style="fill:white;fill-opacity:1;"/>
</svg>
