<svg width="51" height="53" viewBox="0 0 51 53" fill="none" xmlns="http://www.w3.org/2000/svg">
<rect x="0.151855" y="0.920898" width="50.8178" height="51.4693" rx="5.25701" fill="#0F231B" style="fill:#0F231B;fill:color(display-p3 0.0588 0.1373 0.1059);fill-opacity:1;"/>
<path d="M13.4081 10.5583C12.1873 10.5583 11.0775 11.0023 10.2451 11.8347C9.35732 12.7225 8.91337 13.8323 8.91337 14.9976C8.91337 16.2183 9.41279 17.3282 10.2451 18.1605C11.0775 18.9929 12.2428 19.4923 13.3527 19.4369C13.3527 19.4369 13.4081 19.4369 13.4637 19.4369C14.5735 19.4369 15.6278 18.9929 16.4602 18.1605C17.2925 17.3282 17.7919 16.2183 17.7919 14.9976C17.8474 13.8323 17.348 12.7224 16.5156 11.8901C15.6833 11.0022 14.5734 10.5583 13.4081 10.5583ZM15.6833 17.3837C15.0728 17.9941 14.2405 18.3826 13.3527 18.3271C12.5203 18.3271 11.6325 17.9941 11.022 17.3837C10.3562 16.7733 10.0232 15.8855 10.0232 14.9976C10.0232 14.1098 10.3562 13.2774 11.022 12.6116C11.6325 12.0011 12.4648 11.6682 13.4081 11.6682C14.2405 11.6682 15.0728 12.0011 15.6833 12.6116C16.3492 13.2774 16.6821 14.1098 16.6821 14.9976C16.6821 15.8855 16.3492 16.7733 15.6833 17.3837Z" fill="white" style="fill:white;fill-opacity:1;"/>
<path d="M15.5723 20.5464H11.0775C10.1897 20.5464 9.46825 21.2677 9.46825 22.2111V41.6329C9.46825 42.5207 10.2451 43.2976 11.133 43.2976H15.5723C16.4601 43.2976 17.237 42.5207 17.237 41.6884V22.2111C17.237 21.3232 16.4601 20.5464 15.5723 20.5464ZM16.1271 41.6884C16.1271 41.9659 15.8497 42.1878 15.5723 42.1878H11.133C10.8555 42.1878 10.5781 41.9103 10.5781 41.6329V22.2111C10.5781 21.9336 10.8 21.6562 11.0775 21.6562H15.5723C15.8497 21.6562 16.1271 21.9337 16.1271 22.2111V41.6884Z" fill="white" style="fill:white;fill-opacity:1;"/>
<path d="M34.4391 19.9915H33.2738C31.1097 19.9915 29.0565 20.9348 27.7247 22.4331V21.6562C27.7247 21.1013 27.1699 20.5463 26.6149 20.5463H21.0658C20.5664 20.5463 19.956 20.9903 19.956 21.6006V42.2987C19.956 42.9091 20.5664 43.2975 21.0658 43.2975H27.1699C27.6693 43.2975 28.2797 42.9091 28.2797 42.2987V30.3127C28.2797 28.4815 29.6115 27.0387 31.3317 27.0387C32.2195 27.0387 33.0519 27.3716 33.6623 27.9821C34.2172 28.4815 34.4392 29.2584 34.4392 30.2572V42.1878C34.4392 42.7426 34.9941 43.2976 35.549 43.2976H41.0981C41.6529 43.2976 42.2079 42.7427 42.2079 42.1878V27.8711C42.2078 23.4319 38.8229 19.9915 34.4391 19.9915ZM41.098 42.1323L41.0425 42.1878H35.6044L35.5489 30.2573C35.5489 28.9255 35.216 27.9267 34.4946 27.2053C33.6623 26.3729 32.5524 25.929 31.3871 25.929C29.0565 25.9845 27.2253 27.8712 27.2253 30.3127V42.1878H21.1213V21.6562H26.6149L26.6704 21.7116V25.2076L28.1686 23.7093L28.2241 23.6538C29.3339 22.1001 31.2761 21.1013 33.3293 21.1013H34.4946C38.2124 21.1013 41.098 24.0978 41.098 27.8712V42.1323Z" fill="white" style="fill:white;fill-opacity:1;"/>
</svg>
