<svg width="52" height="52" viewBox="0 0 52 52" fill="none" xmlns="http://www.w3.org/2000/svg">
<rect x="0.971924" y="0.637939" width="50.8178" height="50.8178" rx="5.25701" fill="#0F231B" style="fill:#0F231B;fill:color(display-p3 0.0588 0.1373 0.1059);fill-opacity:1;"/>
<path d="M42.3841 20.2742C40.0976 18.6988 28.313 10.917 28.1021 10.7476C27.6397 10.44 27.0966 10.2759 26.5412 10.2759C25.9858 10.2759 25.4427 10.44 24.9803 10.7476L11.1559 19.9618C10.7265 20.1992 10.3682 20.5469 10.1181 20.9692C9.86809 21.3914 9.73534 21.8727 9.73361 22.3634V39.6644C9.73937 40.3932 10.0314 41.0905 10.5468 41.6058C11.0621 42.1211 11.7594 42.4132 12.4882 42.4189H40.5939C41.1914 42.4192 41.7721 42.221 42.2448 41.8555C42.5862 41.601 42.8637 41.2706 43.0553 40.8902C43.2468 40.5099 43.3472 40.0902 43.3485 39.6644V22.3634C43.3497 21.9659 43.264 21.573 43.0974 21.2121C42.9308 20.8513 42.6874 20.5312 42.3841 20.2742ZM29.974 29.4494C33.3139 27.2232 40.1153 22.69 41.8837 21.5112C42.0546 21.7627 42.1466 22.0594 42.1479 22.3634V39.6644C42.1477 39.9829 42.0488 40.2935 41.8649 40.5536L29.974 29.4494ZM25.6442 11.748C25.91 11.5711 26.2221 11.4768 26.5414 11.4769C26.8606 11.4769 27.1728 11.5713 27.4385 11.7483L40.9028 20.7224L28.6806 28.8725L27.4385 29.6964C27.1728 29.8736 26.8605 29.9681 26.5412 29.9681C26.2218 29.9681 25.9096 29.8736 25.6439 29.6964L12.1789 20.7224L25.6442 11.748ZM11.2171 40.5536C11.0333 40.2935 10.9344 39.9829 10.9341 39.6644V22.3634C10.9367 22.0597 11.029 21.7635 11.1994 21.512C13.108 22.7848 20.8377 27.9394 23.1054 29.4516C20.944 31.47 13.1123 38.7838 11.2171 40.5536ZM12.4882 41.2184C12.4205 41.2161 12.353 41.2093 12.2862 41.198C14.6226 39.0162 22.3976 31.7554 24.1315 30.1362C25.9003 31.4756 27.1052 31.5529 28.9475 30.1335L40.7958 41.198C40.5773 41.2625 12.7154 41.1944 12.4882 41.2184Z" fill="white" style="fill:white;fill-opacity:1;"/>
<path d="M28.9509 24.7221C28.9193 24.6498 28.8737 24.5845 28.8168 24.5299C28.7598 24.4752 28.6927 24.4324 28.6192 24.4037C28.5457 24.3751 28.4672 24.3612 28.3884 24.363C28.3095 24.3647 28.2317 24.382 28.1595 24.4138C27.5868 24.658 26.9656 24.7673 26.344 24.7332C25.7223 24.6991 25.1168 24.5226 24.5742 24.2172C24.0316 23.9119 23.5665 23.4859 23.2147 22.9722C22.863 22.4585 22.634 21.8708 22.5456 21.2545C22.0123 15.9671 29.6219 14.9333 30.5325 20.16C30.5743 20.7914 30.7452 21.9327 29.856 21.9819C29.7557 22.0043 29.6516 22.0044 29.5513 21.9823C29.4509 21.9601 29.3566 21.9162 29.275 21.8536C29.1935 21.791 29.1267 21.7113 29.0793 21.6201C29.0319 21.5289 29.0051 21.4284 29.0007 21.3257V19.0853C28.9984 18.964 28.9595 18.8463 28.8891 18.7476C28.8187 18.6488 28.7201 18.5736 28.6062 18.5319C28.4923 18.4902 28.3685 18.4839 28.2509 18.5138C28.1334 18.5437 28.0277 18.6084 27.9476 18.6995C27.5308 18.421 27.0423 18.2692 26.5411 18.2625C25.8926 18.2684 25.2726 18.5301 24.816 18.9907C24.3595 19.4513 24.1034 20.0736 24.1034 20.7222C24.1033 21.3707 24.3595 21.9931 24.816 22.4537C25.2725 22.9144 25.8925 23.1761 26.541 23.1819C27.1715 23.1799 27.7776 22.9382 28.2365 22.506C28.4327 22.7399 28.6822 22.9234 28.964 23.0411C29.2457 23.1588 29.5516 23.2073 29.8559 23.1824C31.5589 23.1829 31.9576 21.3779 31.7224 19.9998C31.1958 15.799 25.7858 13.9693 22.8428 17.0239C19.5546 20.2382 21.9445 25.9879 26.5369 25.9517C27.2366 25.9098 29.3212 25.8012 28.9509 24.7221ZM26.5411 21.9814C26.2103 21.9765 25.8948 21.8417 25.6626 21.6061C25.4304 21.3705 25.3002 21.053 25.3002 20.7222C25.3002 20.3914 25.4304 20.0739 25.6625 19.8383C25.8947 19.6027 26.2103 19.4679 26.541 19.4631C26.8718 19.4679 27.1874 19.6027 27.4195 19.8383C27.6517 20.0739 27.7819 20.3914 27.7819 20.7222C27.7819 21.053 27.6517 21.3705 27.4196 21.6061C27.1874 21.8417 26.8718 21.9765 26.5411 21.9814Z" fill="white" style="fill:white;fill-opacity:1;"/>
</svg>
