<svg width="52" height="52" viewBox="0 0 52 52" fill="none" xmlns="http://www.w3.org/2000/svg">
<rect x="0.971924" y="0.920654" width="50.8178" height="50.8178" rx="5.25701" fill="#0F231B" style="fill:#0F231B;fill:color(display-p3 0.0588 0.1373 0.1059);fill-opacity:1;"/>
<path fill-rule="evenodd" clip-rule="evenodd" d="M26.7781 34.0757C26.537 34.0757 26.3132 33.9508 26.1883 33.7474C25.7379 33.0296 25.1306 32.1259 24.4274 31.0827C21.5971 26.8808 17.7206 21.1301 17.7206 17.8638C17.7206 12.8686 21.7831 8.80615 26.7782 8.80615C31.7734 8.80615 35.8359 12.8686 35.8359 17.8638C35.8359 21.13 31.9595 26.8837 29.1292 31.0827C28.4259 32.1259 27.8186 33.0296 27.3682 33.7474C27.243 33.9537 27.0193 34.0757 26.7781 34.0757ZM26.7781 10.201C22.553 10.201 19.1154 13.6387 19.1154 17.8638C19.1154 20.7028 23.0064 26.4798 25.5839 30.3039C26.0226 30.9577 26.4266 31.5534 26.7781 32.091C27.1297 31.5534 27.5337 30.9577 27.9725 30.3039C30.5471 26.4798 34.4381 20.7028 34.4381 17.8638C34.441 13.6386 31.0033 10.201 26.7781 10.201Z" fill="white" style="fill:white;fill-opacity:1;"/>
<path fill-rule="evenodd" clip-rule="evenodd" d="M26.7781 22.7051C24.0466 22.7051 21.8265 20.4821 21.8265 17.7534C21.8265 15.0219 24.0495 12.8018 26.7781 12.8018C29.5097 12.8018 31.7298 15.0248 31.7298 17.7534C31.7298 20.4821 29.5096 22.7051 26.7781 22.7051ZM26.7781 14.1938C24.8167 14.1938 23.2213 15.7892 23.2213 17.7506C23.2213 19.7121 24.8167 21.3075 26.7781 21.3075C28.7396 21.3075 30.335 19.7121 30.335 17.7506C30.3349 15.7891 28.7396 14.1938 26.7781 14.1938Z" fill="white" style="fill:white;fill-opacity:1;"/>
<path fill-rule="evenodd" clip-rule="evenodd" d="M21.6202 44.5135C21.5476 44.5135 21.472 44.5019 21.3994 44.4787L11.0863 41.0381C10.8016 40.9422 10.6098 40.6778 10.6098 40.3756V20.3249C10.6098 20.1012 10.7173 19.889 10.9003 19.7583C11.0834 19.6276 11.3159 19.5926 11.5281 19.6624L20.6032 22.6874C20.7717 22.7426 20.9112 22.8618 20.9955 23.0157C21.3471 23.6637 21.7568 24.3757 22.2188 25.1312C22.2857 25.2416 22.3205 25.3667 22.3205 25.4944V43.816C22.3205 44.0399 22.213 44.2519 22.03 44.3827C21.9079 44.467 21.7655 44.5135 21.6202 44.5135ZM12.0046 39.8758L20.9228 42.8485L20.9227 25.6892C20.542 25.0615 20.2079 24.4803 19.8998 23.9253L12.0046 21.2897V39.8758Z" fill="white" style="fill:white;fill-opacity:1;"/>
<path fill-rule="evenodd" clip-rule="evenodd" d="M21.6202 44.5136C21.4749 44.5136 21.3325 44.4671 21.2133 44.3829C21.0304 44.2521 20.9228 44.04 20.9228 43.8162L20.9227 25.4946C20.9227 25.1808 21.132 24.9077 21.4313 24.8234C21.7335 24.7391 22.0532 24.867 22.2159 25.1314C23.3143 26.9389 24.5203 28.726 25.581 30.3039C26.0197 30.9578 26.4237 31.5563 26.7752 32.091C27.1268 31.5563 27.5308 30.9578 27.9696 30.3039C29.0332 28.726 30.2362 26.9389 31.3347 25.1314C31.4974 24.8641 31.817 24.7391 32.1192 24.8234C32.4214 24.9077 32.6279 25.1808 32.6279 25.4946V40.3785C32.6279 40.6779 32.436 40.9452 32.1512 41.0411L21.8383 44.4788C21.7683 44.502 21.6957 44.5136 21.6202 44.5136ZM22.3175 27.9123V42.8485L31.2358 39.8758V27.9123C30.518 29.0223 29.7944 30.0947 29.1291 31.0855C28.4258 32.1287 27.8185 33.0325 27.3681 33.7502C27.2402 33.9536 27.0165 34.0785 26.7752 34.0785C26.5341 34.0785 26.3103 33.9536 26.1854 33.7502C25.735 33.0296 25.1277 32.1287 24.4245 31.0855C23.7589 30.0947 23.0382 29.0223 22.3175 27.9123Z" fill="white" style="fill:white;fill-opacity:1;"/>
<path fill-rule="evenodd" clip-rule="evenodd" d="M42.2491 44.5137C42.1765 44.5137 42.101 44.502 42.0284 44.4788L31.7154 41.0411C31.4306 40.9452 31.2389 40.6808 31.2389 40.3786L31.2388 25.4946C31.2388 25.3668 31.2736 25.2418 31.3405 25.1314C32.3692 23.4373 33.1218 22.0308 33.639 20.8307C33.7814 20.4965 34.1562 20.3309 34.4992 20.4442L42.47 23.1002C42.7548 23.1961 42.9466 23.4605 42.9466 23.7627V43.8162C42.9466 44.0401 42.8391 44.2521 42.656 44.3829C42.5368 44.4671 42.3945 44.5137 42.2491 44.5137ZM32.6336 39.8759L41.5518 42.8486L41.5517 24.2655L34.656 21.9669C34.1533 23.0479 33.485 24.2742 32.6336 25.6894V39.8759Z" fill="white" style="fill:white;fill-opacity:1;"/>
</svg>
