<svg width="42" height="42" viewBox="0 0 42 42" fill="none" xmlns="http://www.w3.org/2000/svg">
<path d="M30.7951 0.188232H10.2759C4.63232 0.188232 0 4.82055 0 10.4968V31.016C0 36.6596 4.63232 41.2919 10.2759 41.2919H30.7951C36.4714 41.2919 41.1037 36.6596 41.1037 30.9834V10.4968C41.1037 4.82055 36.4714 0.188232 30.7951 0.188232ZM26.065 20.7401H22.1829V33.4627H17.2896V20.7401H14.6799V15.5206H16.9634V13.3023C16.9634 11.2145 18.0073 7.91964 22.4113 7.91964H26.4238V12.2584H23.5857C23.129 12.2584 22.5092 12.552 22.5092 13.5632V15.5206H26.5217L26.065 20.7401Z" fill="white" style="fill:white;fill-opacity:1;"/>
</svg>
