<svg width="42" height="42" viewBox="0 0 42 42" fill="none" xmlns="http://www.w3.org/2000/svg">
<path d="M24.1598 20.7403C24.1598 22.7354 22.5423 24.3529 20.5472 24.3529C18.5521 24.3529 16.9346 22.7354 16.9346 20.7403C16.9346 18.7452 18.5521 17.1277 20.5472 17.1277C22.5423 17.1277 24.1598 18.7452 24.1598 20.7403Z" fill="white" style="fill:white;fill-opacity:1;"/>
<path d="M26.6485 9.82227H14.4459C11.7897 9.82227 9.62903 11.9829 9.62903 14.6391V26.8418C9.62903 29.4979 11.7897 31.6586 14.4459 31.6586H26.6485C29.3047 31.6586 31.4654 29.4979 31.4654 26.8418V14.6391C31.4654 11.9829 29.3047 9.82227 26.6485 9.82227ZM20.5472 26.7615C17.2272 26.7615 14.5261 24.0605 14.5261 20.7404C14.5261 17.4204 17.2272 14.7194 20.5472 14.7194C23.8672 14.7194 26.5682 17.4204 26.5682 20.7404C26.5682 24.0605 23.8672 26.7615 20.5472 26.7615ZM27.4513 15.0405C26.7862 15.0405 26.2471 14.5014 26.2471 13.8363C26.2471 13.1712 26.7862 12.6321 27.4513 12.6321C28.1165 12.6321 28.6555 13.1712 28.6555 13.8363C28.6555 14.5014 28.1165 15.0405 27.4513 15.0405Z" fill="white" style="fill:white;fill-opacity:1;"/>
<path d="M30.2612 0.188232H10.8333C4.85736 0.188232 -0.00463867 5.05023 -0.00463867 11.0261V30.454C-0.00463867 36.4299 4.85736 41.2919 10.8333 41.2919H30.2612C36.2371 41.2919 41.0991 36.4299 41.0991 30.454V11.0261C41.0991 5.05023 36.2371 0.188232 30.2612 0.188232ZM33.8738 26.8414C33.8738 30.8253 30.6325 34.0667 26.6485 34.0667H14.4459C10.462 34.0667 7.22062 30.8253 7.22062 26.8414V14.6388C7.22062 10.6548 10.462 7.41349 14.4459 7.41349H26.6485C30.6325 7.41349 33.8738 10.6548 33.8738 14.6388V26.8414Z" fill="white" style="fill:white;fill-opacity:1;"/>
</svg>
