<svg width="42" height="42" viewBox="0 0 42 42" fill="none" xmlns="http://www.w3.org/2000/svg">
<path d="M17.9001 16.6951V24.1981L24.816 20.4792L17.9001 16.6951Z" fill="white" style="fill:white;fill-opacity:1;"/>
<path d="M30.7858 0.188232H10.2666C4.62298 0.188232 -0.00933838 4.82055 -0.00933838 10.4968V31.016C-0.00933838 36.6596 4.62298 41.2919 10.2666 41.2919H30.7858C36.462 41.2919 41.0944 36.6596 41.0944 30.9834V10.4968C41.0944 4.82055 36.462 0.188232 30.7858 0.188232ZM33.2651 21.7514C33.2651 23.9044 33.0694 26.0901 33.0694 26.0901C33.0694 26.0901 32.841 27.9169 32.0907 28.7325C31.112 29.809 30.0355 29.809 29.5462 29.8742C25.9578 30.1352 20.5751 30.1678 20.5751 30.1678C20.5751 30.1678 13.8876 30.07 11.8324 29.8742C11.2779 29.7764 9.97299 29.809 8.99433 28.7325C8.2114 27.9169 8.01567 26.0901 8.01567 26.0901C8.01567 26.0901 7.81994 23.9044 7.81994 21.7514V19.7288C7.81994 17.5757 8.01567 15.3901 8.01567 15.3901C8.01567 15.3901 8.24402 13.5632 8.99433 12.7477C9.97299 11.6712 11.0495 11.6385 11.5388 11.5733C15.1599 11.3123 20.5425 11.2797 20.5425 11.2797C20.5425 11.2797 25.9251 11.3123 29.5136 11.5733C30.0029 11.6385 31.112 11.6712 32.0907 12.7151C32.8736 13.5306 33.0694 15.3901 33.0694 15.3901C33.0694 15.3901 33.2651 17.5757 33.2651 19.7288V21.7514Z" fill="white" style="fill:white;fill-opacity:1;"/>
</svg>
