<svg width="86" height="90" viewBox="0 0 86 90" fill="none" xmlns="http://www.w3.org/2000/svg">
<path d="M80.4072 67.6707C83.843 61.5067 85.8032 54.4077 85.8032 46.8499C85.8032 23.1956 66.6276 4.02002 42.9733 4.02002C19.319 4.02002 0.143372 23.1956 0.143372 46.8499C0.143372 54.4077 2.10357 61.5067 5.53937 67.6707H80.4072Z" fill="#FF4155" style="fill:#FF4155;fill:color(display-p3 1.0000 0.2549 0.3333);fill-opacity:1;"/>
<path d="M55.9274 55.2433C55.9281 55.2427 55.9286 55.242 55.9286 55.242C55.8255 55.213 55.7204 55.1865 55.6161 55.1588C55.5814 55.1497 55.5472 55.1398 55.5126 55.1307L55.5119 55.1312C55.16 55.0387 54.8063 54.9494 54.4483 54.8667C52.6736 53.092 52.2236 49.7273 52.1427 47.3733C51.2165 48.4521 50.2445 49.3545 49.3157 50.0756C47.5061 51.4809 45.2731 52.2441 42.9733 52.2441C40.6734 52.2441 38.4403 51.4809 36.6308 50.0756C35.702 49.3545 34.7299 48.4519 33.8037 47.3733C33.7226 49.7273 33.2728 53.092 31.4979 54.8667C31.135 54.9505 30.7763 55.0414 30.4195 55.1351C30.4195 55.1351 30.4192 55.1347 30.4188 55.1345C30.3858 55.1431 30.3531 55.1525 30.32 55.1613C30.2144 55.1892 30.1082 55.2162 30.0029 55.245C30.0029 55.245 30.0043 55.2462 30.0048 55.2468C28.3695 55.6946 26.7912 56.2423 25.2488 56.889V61.0609C28.124 64.9909 31.971 67.4411 34.1729 68.3666C35.1626 68.7825 36.2174 68.9933 37.3084 68.9933H40.3998L41.1559 69.2555H44.7903L45.5464 68.9933H48.6378C49.7286 68.9933 50.7835 68.7823 51.7731 68.3666C53.9627 67.4462 57.7789 65.0187 60.6488 61.1274V56.869C59.1176 56.2299 57.5507 55.6875 55.9274 55.2433Z" fill="#FFAA7B" style="fill:#FFAA7B;fill:color(display-p3 1.0000 0.6667 0.4824);fill-opacity:1;"/>
<path d="M36.6308 50.076C35.702 49.3547 34.7299 48.4523 33.8037 47.3735C33.7226 49.7276 33.2728 53.0922 31.4981 54.867C31.135 54.9507 30.7765 55.0416 30.4197 55.1355C30.4197 55.1355 30.4193 55.1351 30.419 55.135C30.3859 55.1437 30.3532 55.153 30.3202 55.1619C30.2146 55.1898 30.1083 55.2168 30.0031 55.2456C30.0031 55.2456 30.0045 55.2468 30.0052 55.2474C29.3669 55.4222 28.7397 55.6167 28.1175 55.822C29.8503 59.9593 33.4875 67.0842 37.3355 65.1107C42.6759 62.3719 42.9733 52.2444 42.9733 52.2444C40.6734 52.2444 38.4403 51.4811 36.6308 50.076Z" fill="#FC9460" style="fill:#FC9460;fill:color(display-p3 0.9882 0.5804 0.3765);fill-opacity:1;"/>
<path d="M58.3368 63.6476C55.9565 65.8473 53.4103 67.1547 51.7732 67.8428C50.7836 68.2587 49.7287 68.4695 48.6379 68.4695H45.5465L44.7904 68.7317C43.4894 68.7317 42.457 68.7317 41.156 68.7317L40.3999 68.4695H37.3085C36.2177 68.4695 35.1628 68.2585 34.173 67.8428C33.8211 67.6949 33.4253 67.5164 33 67.3086V80.3189C33 80.3189 29.6658 83.6121 32.1214 88.2905C35.5874 89.1957 39.2234 89.6801 42.9732 89.6801C53.3755 89.6801 62.9108 85.9705 70.331 79.8034C70.331 79.5896 70.331 79.3776 70.331 79.1702C70.331 72.6575 62.5253 66.489 58.3368 63.6476Z" fill="#FFC839" style="fill:#FFC839;fill:color(display-p3 1.0000 0.7843 0.2235);fill-opacity:1;"/>
<path d="M33.3497 80.3186V67.4757C31.7531 66.728 29.63 65.5111 27.6216 63.6581C23.4416 66.4922 15.6323 72.6575 15.6323 79.1674V79.8174C20.4783 83.8409 26.2258 86.8159 32.5269 88.3956C29.965 83.6614 33.3497 80.3186 33.3497 80.3186Z" fill="#FFB332" style="fill:#FFB332;fill:color(display-p3 1.0000 0.7020 0.1961);fill-opacity:1;"/>
<path d="M80.4072 67.6708C80.3698 67.5986 80.3332 67.5254 80.2955 67.4541C78.8968 64.8231 76.5478 62.8241 73.7452 61.8119L61.8877 57.5297C62.106 57.97 62.2546 58.6216 61.8321 59.3392C60.7267 61.2172 59.371 62.7426 57.9776 63.9712C61.8938 66.5814 69.8267 72.6621 69.8267 79.0922V80.2139C74.1088 76.7631 77.7124 72.5055 80.4072 67.6708Z" fill="#FFDD40" style="fill:#FFDD40;fill:color(display-p3 1.0000 0.8667 0.2510);fill-opacity:1;"/>
<path d="M24.1143 59.3392C23.6918 58.6216 23.8405 57.97 24.0587 57.5297L12.2012 61.8119C9.39875 62.8241 7.04977 64.8231 5.65107 67.4541C5.61314 67.5254 5.5766 67.5986 5.53937 67.6708C8.23413 72.5053 11.8376 76.7631 16.1198 80.2139C16.1198 79.8306 16.1198 79.4554 16.1198 79.0922C16.1198 72.6621 24.0526 66.5816 27.9688 63.9712C26.5753 62.7426 25.2198 61.2172 24.1143 59.3392Z" fill="#FFC839" style="fill:#FFC839;fill:color(display-p3 1.0000 0.7843 0.2235);fill-opacity:1;"/>
<path d="M63.1017 51.4361C61.8062 48.4132 57.6041 46.6463 52.0721 44.7942L51.6926 47.8236C51.6926 47.8236 55.1838 61.6003 44.7904 68.7317H49.8457C51.2617 68.7317 52.6621 68.434 53.9521 67.8496C55.5737 67.1147 57.8477 65.9202 59.8745 64.2638C63.6627 61.1678 65.029 55.933 63.1017 51.4361Z" fill="#FEE77F" style="fill:#FEE77F;fill:color(display-p3 0.9961 0.9059 0.4980);fill-opacity:1;"/>
<path d="M34.6492 59.8356C32.7239 59.3402 27.7877 58.6939 26.4727 64.5825C28.3936 66.074 30.4788 67.1626 31.9943 67.8495C33.284 68.434 34.6845 68.7316 36.1005 68.7316H41.1558C37.5773 66.2761 35.6451 63.033 34.6492 59.8356Z" fill="#FEE77F" style="fill:#FEE77F;fill:color(display-p3 0.9961 0.9059 0.4980);fill-opacity:1;"/>
<path d="M34.2539 47.8236L33.8744 44.7942C28.3424 46.6463 24.1404 48.413 22.8448 51.4361C20.9175 55.933 22.2838 61.1678 26.0722 64.2636C26.2992 64.4491 26.5294 64.6278 26.7612 64.8015C28.0742 57.7724 34.8413 60.4168 34.8413 60.4168L34.8415 60.4156C32.6573 54.1286 34.2539 47.8236 34.2539 47.8236Z" fill="#FFDD40" style="fill:#FFDD40;fill:color(display-p3 1.0000 0.8667 0.2510);fill-opacity:1;"/>
<path d="M33.3498 80.3188C32.5294 80.3188 31.8583 79.6477 31.8583 78.8273V66.5757C31.8583 65.7553 32.5294 65.0842 33.3498 65.0842C34.1702 65.0842 34.8413 65.7553 34.8413 66.5757V78.8273C34.8413 79.6477 34.1702 80.3188 33.3498 80.3188Z" fill="#DEEEFF" style="fill:#DEEEFF;fill:color(display-p3 0.8706 0.9333 1.0000);fill-opacity:1;"/>
<path d="M52.5482 80.3188C51.7278 80.3188 51.0567 79.6477 51.0567 78.8273V66.5757C51.0567 65.7553 51.7278 65.0842 52.5482 65.0842C53.3686 65.0842 54.0397 65.7553 54.0397 66.5757V78.8273C54.0397 79.6477 53.3686 80.3188 52.5482 80.3188Z" fill="#DEEEFF" style="fill:#DEEEFF;fill:color(display-p3 0.8706 0.9333 1.0000);fill-opacity:1;"/>
<path d="M70.1744 13.7661C67.0678 15.8892 64.7167 19.1403 65.5354 24.0277C67.6803 36.8334 57.8002 43.3666 73.2417 50.2322C78.7318 52.6734 82.1896 55.5291 84.3428 57.9708C85.2945 54.4245 85.8032 50.6967 85.8032 46.8499C85.8032 33.5249 79.7175 21.6214 70.1744 13.7661Z" fill="#FF7186" style="fill:#FF7186;fill:color(display-p3 1.0000 0.4431 0.5255);fill-opacity:1;"/>
<path d="M15.7721 13.7661C18.8788 15.8892 21.2299 19.1403 20.4112 24.0277C18.2662 36.8334 28.1464 43.3666 12.7048 50.2322C7.21479 52.6734 3.75696 55.5291 1.60377 57.9708C0.652082 54.4245 0.143372 50.6967 0.143372 46.8499C0.143372 33.5249 6.22902 21.6214 15.7721 13.7661Z" fill="#FF7186" style="fill:#FF7186;fill:color(display-p3 1.0000 0.4431 0.5255);fill-opacity:1;"/>
<path d="M59.6563 27.8099C60.7933 23.1733 61.7219 16.2258 59.2635 10.445C54.5098 -0.733293 41.5723 -0.0441741 38.1438 0.349508C37.7838 0.390764 37.6033 0.801404 37.808 1.10016C39.8631 4.10033 31.8117 1.38214 27.4355 10.5616C24.6619 16.3793 25.3589 23.2289 26.3728 27.8101L59.6563 27.8099Z" fill="#945230" style="fill:#945230;fill:color(display-p3 0.5804 0.3216 0.1882);fill-opacity:1;"/>
<path d="M42.7855 12.4912C42.7855 12.4912 41.4967 9.52736 44.7603 7.07996C48.0196 4.6357 43.161 0.244185 43.1484 0.232823C40.9623 0.0943694 39.1462 0.234221 38.1438 0.349424C37.7838 0.390855 37.6033 0.801319 37.808 1.10008C39.8631 4.10024 31.8117 1.38205 27.4355 10.5616C24.6619 16.3794 25.3589 23.229 26.3728 27.81H33.9809L36.3976 26.8499L42.7855 12.4912Z" fill="#753616" style="fill:#753616;fill:color(display-p3 0.4588 0.2118 0.0863);fill-opacity:1;"/>
<path d="M60.3246 27.2223C59.6074 26.565 58.0038 26.8982 57.386 27.3006C57.5213 28.1434 57.529 29.0056 57.4122 29.857L56.6832 35.1664C56.6832 35.5944 56.6698 36.0143 56.645 36.4268C58.4226 36.963 59.4805 35.3671 59.6292 34.2719C59.6932 33.8004 59.7979 33.3358 59.9432 32.8823C60.4159 31.4058 62.1217 28.8692 60.3246 27.2223Z" fill="#FFAA7B" style="fill:#FFAA7B;fill:color(display-p3 1.0000 0.6667 0.4824);fill-opacity:1;"/>
<path d="M25.622 27.2223C26.3393 26.565 27.9428 26.8982 28.5606 27.3006C28.4253 28.1434 28.4176 29.0056 28.5346 29.857L29.2635 35.1664C29.2635 35.5944 29.277 36.0143 29.3018 36.4268C27.5241 36.963 26.4663 35.3671 26.3176 34.2719C26.2536 33.8004 26.1489 33.3358 26.0036 32.8823C25.5307 31.4058 23.8249 28.8692 25.622 27.2223Z" fill="#FC9460" style="fill:#FC9460;fill:color(display-p3 0.9882 0.5804 0.3765);fill-opacity:1;"/>
<path d="M56.4905 24.3899C55.6827 23.1226 55.9503 22.0876 55.9635 20.8756C55.9635 20.8756 56.6449 15.296 49.7731 13.3148C47.7837 12.7413 44.9764 12.3983 42.0998 12.5086C40.098 13.9199 38.7797 15.9907 38.7797 18.9252C38.7797 20.2739 39.0704 21.3278 38.2427 22.6952C37.3503 24.1698 36.8309 26.2967 37.1258 28.5588L37.8686 34.2559C37.8686 42.4463 42.0201 48.0132 45.5515 50.9012C46.0539 51.312 46.5901 51.6674 47.1493 51.973C47.9173 51.6349 48.6455 51.2031 49.3154 50.6828C52.7822 47.9907 56.8576 42.8013 56.8576 35.1666L57.5866 29.8572C57.8742 27.7652 57.3756 25.7786 56.4905 24.3899Z" fill="#FFC7AB" style="fill:#FFC7AB;fill:color(display-p3 1.0000 0.7804 0.6706);fill-opacity:1;"/>
<path d="M45.5877 50.5674C42.121 47.7322 38.0454 42.2672 38.0454 34.2266L37.3162 28.6337C37.0267 26.4132 37.5365 24.3251 38.4126 22.8774C39.225 21.535 38.9397 20.5005 38.9397 19.1763C38.9397 16.0169 40.4935 13.8743 42.7855 12.4908C36.6781 12.5753 29.9829 14.6454 29.9829 20.8753C29.9829 22.1326 30.2684 23.115 29.4558 24.3898C28.5797 25.7643 28.0699 27.7471 28.3594 29.8557L29.0886 35.1664C29.0886 42.8012 33.164 47.9906 36.6309 50.6826C38.4404 52.0877 40.6735 52.851 42.9734 52.851C44.5556 52.851 46.1061 52.4898 47.5088 51.8068C46.8308 51.4701 46.1858 51.0565 45.5877 50.5674Z" fill="#FFAA7B" style="fill:#FFAA7B;fill:color(display-p3 1.0000 0.6667 0.4824);fill-opacity:1;"/>
<path d="M52.7884 41.3163C52.383 38.899 50.6389 36.4785 48.3103 35.9504L44.7513 34.9048C44.1326 34.7232 43.5132 35.0405 43.2641 35.5792C43.2187 35.6777 43.0811 35.6777 43.0355 35.5792C42.7862 35.0405 42.1668 34.7232 41.5481 34.9048L37.9891 35.9504C37.9008 35.9705 37.8138 35.9939 37.7272 36.0192H37.7604C37.3834 36.9063 36.7317 39.1091 38.5868 40.792C39.1859 40.4863 39.8268 40.2522 40.4994 40.1036L41.1351 39.9632C42.0616 39.7587 42.7781 38.8542 43.0409 37.8905C43.071 37.7798 43.2283 37.7798 43.2585 37.8905C43.5213 38.8542 44.2377 39.7587 45.1644 39.9632L45.8002 40.1036C47.6273 40.5069 49.2283 41.5294 50.3607 42.9585C50.1263 44.0007 49.3912 45.5846 47.113 46.3896C45.5844 46.9296 43.9164 45.9683 43.7206 44.3771C43.7181 44.3565 43.7157 44.3359 43.7134 44.3149C43.6812 44.0182 43.4328 43.7901 43.1304 43.7901C42.8281 43.7901 42.5796 44.0182 42.5474 44.3149C42.5451 44.3359 42.5427 44.3565 42.5402 44.3771C42.435 45.2325 41.9025 45.9027 41.1968 46.2588C41.0006 47.0364 40.7403 48.7129 41.552 50.3407C42.139 51.5181 43.1696 52.4293 44.621 53.0609C45.3563 52.9124 46.0767 52.6677 46.7601 52.3198C50.3219 50.5065 55.0575 47.356 56.5722 39.2509C56.6967 38.5845 56.76 37.9069 56.76 37.2288C56.1833 38.6518 54.9847 40.3636 52.7884 41.3163Z" fill="#945230" style="fill:#945230;fill:color(display-p3 0.5804 0.3216 0.1882);fill-opacity:1;"/>
<path d="M39.1611 52.3178C41.0002 53.255 43.1023 53.4669 45.0623 52.9594C40.2728 51.1029 41.2628 46.9211 41.5234 46.0635C40.8668 46.528 39.9868 46.6862 39.1475 46.3897C37.0443 45.6466 36.1396 44.2391 35.7507 43.2072C36.5489 42.1153 37.6121 41.2407 38.8407 40.6675C36.8211 38.9211 37.7796 36.5545 38.0911 35.9204L37.9888 35.9505C35.6143 36.4889 33.8464 38.9952 33.4872 41.4594C31.0578 40.5434 29.7932 38.726 29.1867 37.2289V37.2296C29.1867 37.9067 29.2498 38.5834 29.3741 39.2489C30.8861 47.3524 35.5989 50.5026 39.1611 52.3178Z" fill="#753616" style="fill:#753616;fill:color(display-p3 0.4588 0.2118 0.0863);fill-opacity:1;"/>
</svg>
